<svg width="35" height="35" viewBox="0 0 35 35" fill="none" xmlns="http://www.w3.org/2000/svg">
<path d="M29.1667 4.375H5.83332C5.05977 4.375 4.31791 4.68229 3.77093 5.22927C3.22395 5.77625 2.91666 6.51812 2.91666 7.29167V10.2083C2.91973 10.7173 3.05595 11.2167 3.31179 11.6567C3.56763 12.0967 3.93417 12.4622 4.37499 12.7167V27.7083C4.37499 28.4819 4.68228 29.2237 5.22926 29.7707C5.77624 30.3177 6.51811 30.625 7.29166 30.625H27.7083C28.4819 30.625 29.2237 30.3177 29.7707 29.7707C30.3177 29.2237 30.625 28.4819 30.625 27.7083V12.7167C31.0658 12.4622 31.4324 12.0967 31.6882 11.6567C31.944 11.2167 32.0802 10.7173 32.0833 10.2083V7.29167C32.0833 6.51812 31.776 5.77625 31.229 5.22927C30.6821 4.68229 29.9402 4.375 29.1667 4.375ZM5.83332 7.29167H29.1667V10.2083H5.83332V7.29167ZM7.29166 27.7083V13.125H27.7083V27.7083H7.29166Z" fill="white"/>
<path d="M11.6667 16.0417H23.3333V18.9583H11.6667V16.0417Z" fill="white"/>
</svg>
