<svg width="49" height="56" viewBox="0 0 49 56" fill="none" xmlns="http://www.w3.org/2000/svg">
<path d="M0 10.5C0 8.56734 1.56734 7 3.5 7H45.5C47.4359 7 49 8.56734 49 10.5C49 12.4359 47.4359 14 45.5 14H3.5C1.56734 14 0 12.4359 0 10.5ZM0 28C0 26.0641 1.56734 24.5 3.5 24.5H45.5C47.4359 24.5 49 26.0641 49 28C49 29.9359 47.4359 31.5 45.5 31.5H3.5C1.56734 31.5 0 29.9359 0 28ZM45.5 49H3.5C1.56734 49 0 47.4359 0 45.5C0 43.5641 1.56734 42 3.5 42H45.5C47.4359 42 49 43.5641 49 45.5C49 47.4359 47.4359 49 45.5 49Z" fill="white"/>
</svg>
