<svg width="64" height="51" viewBox="0 0 64 51" fill="currentColor" xmlns="http://www.w3.org/2000/svg">
<path d="M12.8001 9.47285C15.4501 9.47285 17.5101 7.33125 17.5101 4.78125C17.5101 2.23125 15.4501 0 12.8001 0C10.1501 0 8.00106 2.1416 8.00106 4.6916C8.00106 7.2416 10.1501 9.47285 12.8001 9.47285ZM51.1101 9.47285C53.7601 9.47285 55.8201 7.33125 55.8201 4.78125C55.8201 2.23125 53.8501 0 51.1101 0C48.4601 0 46.3101 2.1416 46.3101 4.6916C46.3101 7.2416 48.5501 9.47285 51.1101 9.47285ZM60.3501 25.7291L58.5001 17.7474C58.0376 15.7552 56.6381 14.0738 54.7501 13.2769C52.9001 12.4801 50.9401 12.6046 49.1381 13.6007C46.8761 14.9334 45.1761 17.0372 44.3261 19.5155L43.2011 22.8902L41.6911 23.9112L41.5101 14.3438C41.5101 13.4722 40.7851 12.75 39.9101 12.75H24.0001C23.1251 12.75 22.4001 13.4722 22.4001 14.3438V23.8166L20.7881 22.7956L19.6631 19.4208C18.8256 16.9306 17.1251 14.8388 14.8511 13.506C13.1261 12.5099 11.0881 12.3854 9.23906 13.1823C7.35106 13.9792 5.95106 15.6606 5.48906 17.6528L3.65206 25.6345C3.18956 27.6267 3.72712 29.7434 5.08906 31.2873L11.8141 38.8457L12.8261 48.0725C13.0001 49.7848 14.3801 51 16.0001 51C16.1251 51 16.2251 50.9875 16.3501 50.9751C18.1121 50.7883 19.3751 49.22 19.1751 47.4639L18.1751 38.2251C18.0251 36.9302 17.4751 35.7229 16.6131 34.7388L12.2761 29.8579L14.0381 22.8474L14.7257 24.8774C15.1257 26.1226 15.9127 27.2183 17.1757 28.1277L22.2757 31.365C22.738 31.6514 23.4877 31.8257 24.0007 31.863H39.9107C40.4232 31.8257 41.1727 31.6514 41.6357 31.365L46.7357 28.1277C47.9977 27.2188 48.7857 26.1355 49.1857 24.8774L49.8732 22.8474L51.6362 29.8579L47.2992 34.7388C46.4367 35.7224 45.8872 36.9302 45.7372 38.2251L44.7372 47.4639C44.5372 49.219 45.8122 50.7888 47.5622 50.9751C47.7701 50.99 47.8701 51 47.9101 51C49.5221 51 50.8201 49.7927 51.0851 48.1611L52.0971 38.9343L58.9101 31.377C60.2701 29.833 60.8101 27.7213 60.3501 25.7291ZM4.62606 35.6701L0.226058 46.6271C-0.423942 48.2588 0.376058 50.1135 2.01406 50.7739C3.68906 51.4213 5.52606 50.5996 6.17606 48.9929L8.93806 42.1069L8.73806 40.289L4.62606 35.6701ZM63.7701 46.6271L59.4601 35.6701L55.3471 40.29L55.1471 42.1079L57.9091 48.9939C58.3201 50.243 59.5201 51 60.7101 51C61.1099 51 61.5099 50.9253 61.8971 50.7759C63.6201 50.1135 64.4201 48.2607 63.7701 46.6271Z" fill="currentColor"/>
</svg>
