<?xml version="1.0" encoding="utf-8"?>
<!-- Generator: Adobe Illustrator 23.0.5, SVG Export Plug-In . SVG Version: 6.00 Build 0)  -->
<svg version="1.1" id="Слой_1" xmlns="http://www.w3.org/2000/svg" xmlns:xlink="http://www.w3.org/1999/xlink" x="0px" y="0px"
	 viewBox="0 0 1235.5 975.3" style="enable-background:new 0 0 1235.5 975.3;" xml:space="preserve">
<style type="text/css">
	.st0{fill:#022b3a;}
	.st1{fill:#022b3a;}
	.st2{fill:#1f7a8c;}
	.st3{fill-rule:evenodd;clip-rule:evenodd;fill:#A6C86B;}
	.st4{fill-rule:evenodd;clip-rule:evenodd;fill:#5F9850;}
	.st5{fill:#85D0BB;}
	.st6{fill:#61AA9D;}
	.st7{fill:#C2C2FF;}
	.st8{fill:#203A72;}
	.st9{fill:#263238;}
	.st10{fill:#5563AA;}
	.st11{fill:#FFFFFF;}
	.st12{fill:#0C165A;}
	.st13{fill:#1f7a8c;}
	.st14{fill:#022b3a;}
	.st15{fill:#022b3a;}
	.st16{fill:#DD9D60;}
	.st17{fill:#D29474;}
	.st18{fill:#221950;}
</style>
<g>
	<ellipse class="st0" cx="465.3" cy="955.7" rx="153.6" ry="19.6"/>
	<path class="st1" d="M407.4,937.7c0,0-8.5-2.3-12.1-3.4c-3.5-1-4.4-4.1-5.5-1.8c-1.2,2.2-7.4,9.4-11.1,10.7
		c-3.7,1.3-27.7,7.8-27.5,13.5c0.2,5.6,11.8,6.2,28,5.2c16.2-1.1,17.1,3.1,27.5-1C410,959.6,407.4,937.7,407.4,937.7z"/>
	<path class="st1" d="M555.6,927.8c0,0-8,1.2-11.4,1.6c-3.3,0.4-5.2-1.8-5.3,0.5c-0.2,2.3-2.8,10.6-5.4,13
		c-2.6,2.4-20.4,16.8-18.2,21.4c2.2,4.6,12.2,0.9,25.5-6c13.2-6.8,15.5-3.7,22.8-10.9C565.7,945.3,555.6,927.8,555.6,927.8z"/>
	<path class="st2" d="M546.3,238.3c-8.9,0-16.2-7.3-16.2-16.2c0-8.9,7.3-16.2,16.2-16.2s16.2,7.3,16.2,16.2
		C562.5,231,555.2,238.3,546.3,238.3z M546.3,213.1c-4.9,0-9,4-9,9c0,4.9,4,9,9,9c4.9,0,9-4,9-9
		C555.3,217.2,551.2,213.1,546.3,213.1z"/>
	<path class="st2" d="M923.8,325c-8.9,0-16.2-7.3-16.2-16.2c0-8.9,7.3-16.2,16.2-16.2s16.2,7.3,16.2,16.2
		C940,317.7,932.8,325,923.8,325z M923.8,299.8c-4.9,0-9,4-9,9c0,4.9,4,9,9,9s9-4,9-9C932.8,303.9,928.8,299.8,923.8,299.8z"/>
	<path class="st0" d="M1235.5,788.9c0,10.5-276.6,19.1-617.8,19.1S0,799.4,0,788.9c0-10.5,276.6-19.1,617.8-19.1
		S1235.5,778.3,1235.5,788.9z"/>
	<g>
		<path class="st3" d="M511.4,247.7c-9.9,29.2-26.8,96.4-46.1,166.4c3.7,25.9,14.6,46.3,30.3,58.2c35.9-70,69-148.6,83.6-207.8
			C607.7,148.5,549.2,136.5,511.4,247.7z"/>
		<path class="st4" d="M479.5,454.5c52.1-116.1,82.7-249.4,82.9-249.9c0.3-1.2-0.1-2.3-0.9-2.4c-0.8-0.1-1.7,0.9-2,2.1
			c-0.1,0.6-30.4,132.3-81.8,247.2C478.3,452.5,478.9,453.5,479.5,454.5z"/>
	</g>
	<g>
		<path class="st3" d="M232.7,388c16,34.9,45.3,116,77.8,200.1c-1.5,32.7-12.5,59.5-30.5,76.6c-53.4-81.8-104.2-174.8-129.6-246.3
			C100.5,278.4,171.9,255.2,232.7,388z"/>
		<path class="st4" d="M297.8,640.3c-79.1-136.8-133.7-297.9-133.9-298.6c-0.5-1.5-0.1-2.9,0.9-3.1c1-0.2,2.2,0.8,2.7,2.3
			c0.2,0.7,54.2,159.9,132.2,295.4C299.1,637.7,298.4,639,297.8,640.3z"/>
	</g>
	<g>
		<path class="st5" d="M466.5,460.8c-1.1-48.6,21.2-94.9,49.4-134.6c23.5-33.1,52.3-63.8,89.3-80.5c11.6-5.2,24.4-9,36.9-6.8
			c12.5,2.3,24.3,12.1,25.3,24.8c0.8,10.7-5.8,20.5-12.9,28.5c-23.4,26.5-54.5,44.4-83.6,64.5c-49.9,34.5-96.6,79.3-113.6,137.5"/>
		<path class="st6" d="M483.1,419.4c-0.3,0-0.5,0-0.8-0.1c-1.1-0.4-1.7-1.7-1.3-2.8c28-74.4,107.9-142.3,160.6-153.3
			c1.2-0.3,2.4,0.5,2.6,1.7c0.2,1.2-0.5,2.4-1.7,2.6C591,278.2,512.7,344.9,485.2,418C484.8,418.9,484,419.4,483.1,419.4z"/>
	</g>
	<g>
		<path class="st6" d="M292.3,682.4c4.2-7-9-38.3-11.7-45.9c-14.9-42.2-39.1-80.4-69.5-111.7c-12.3-12.7-26.2-24.5-43-29
			s-36.9,0.4-47,15.6c-9.8,14.8-7.6,35.6,1.7,50.2c9.2,14.7,24.2,24.2,39.4,31.3c23.6,11,49.2,17.5,72,30
			C257,635.6,288,655.3,292.3,682.4z"/>
		<path class="st6" d="M280.2,650c-0.7,0-1.4-0.4-1.8-1c-34.6-52.9-97.3-106-149.2-126.4c-1.1-0.4-1.7-1.7-1.2-2.9
			c0.4-1.1,1.7-1.7,2.9-1.2C183.4,539.1,247,593,282.1,646.6c0.7,1,0.4,2.4-0.6,3C281,649.9,280.6,650,280.2,650z"/>
	</g>
	<g>
		<path class="st5" d="M719.2,522.7c-12.9-42.6-4.6-89,10.5-130.9c12.6-34.9,30.5-69.1,59-92.9c8.9-7.5,19.3-14,30.9-15
			c11.6-1.1,24.4,4.7,28.4,15.7c3.4,9.2-0.1,19.5-4.3,28.3c-14.1,29.1-37.2,52.6-57.9,77.4c-35.5,42.7-65.7,93.7-66.5,149.2"/>
		<path class="st6" d="M723.1,482.1c-0.1,0-0.1,0-0.2,0c-1.1-0.1-1.9-1.1-1.8-2.2c6.5-72.5,60.3-152,104.1-174.7
			c1-0.5,2.2-0.1,2.7,0.9c0.5,1,0.1,2.2-0.9,2.7C784.1,331,731.5,409,725.1,480.3C725,481.3,724.1,482.1,723.1,482.1z"/>
	</g>
	<g>
		<path class="st5" d="M803.1,383.9c14-10.9,29.7-20.5,47.2-23s37.2,3.9,46.5,19c10.7,17.6,4.2,41.5-9.3,57.1
			c-13.4,15.7-32.3,25.3-50.1,35.9c-39.2,23.4-74.7,53-104.8,87.4c-7.5,8.6-13.9,17.5-17.3,28.4c-20.6-17.8,5.4-89.2,14.3-109.7
			C745.7,442,771.1,408.8,803.1,383.9z"/>
		<path class="st6" d="M716.8,566.4c-0.1,0-0.1,0-0.2,0c-1.1-0.1-1.9-1.1-1.8-2.2c4.8-44,54.7-117.6,104.6-154.4
			c17.5-12.9,34.8-19.8,51.6-20.4c1.1-0.1,2.1,0.8,2.1,1.9c0,1.1-0.8,2.1-1.9,2.1c-15.9,0.6-32.5,7.3-49.3,19.7
			c-49.2,36.3-98.3,108.5-103,151.6C718.7,565.7,717.8,566.4,716.8,566.4z"/>
	</g>
	<g>
		<g>
			<path class="st7" d="M1139.1,725.4h11.4c9.7,0,17.7-7.9,17.7-17.7l0,0c0-9.7-7.9-17.7-17.7-17.7h-11.4c-9.7,0-17.7,7.9-17.7,17.7
				l0,0C1121.4,717.5,1129.3,725.4,1139.1,725.4z"/>
			
				<rect x="475.1" y="433.5" transform="matrix(-1 -4.492063e-11 4.492063e-11 -1 1344.5085 1156.5968)" class="st2" width="394.2" height="289.6"/>
			<path class="st2" d="M864.6,588.1v156h214.8c18.5,0,73-1.2,73-1.2V664c0-37.2-24.8-72.3-57.6-78.9h0c-1.1-0.2-2.1-0.4-3.1-0.6
				c0,0-0.1,0-0.2,0c-3.2-0.4-6.4-0.5-9.7-0.5L864.6,588.1z"/>
			
				<rect x="452.3" y="720.2" transform="matrix(-1 -4.491930e-11 4.491930e-11 -1 1611.8169 1464.3951)" class="st8" width="707.3" height="24"/>
			<path class="st2" d="M864.6,474.7l0,3.3l0,4.7l0.9,105.5v0.5l149.3,4.6l77-7.7l-0.3-0.3l-0.4,7.5l-0.4-8.5l-76-102.4
				c-1.9-2.7-4.9-4.4-8.2-4.9l-137.4-13.5C863,462.6,865.2,468.3,864.6,474.7z"/>
			<path class="st7" d="M886.8,487l0,2.5l0,3.6l0.7,80.6v0.4l173,4.7l-0.2-8.3l-0.3-0.5l-0.3-0.4l-58.1-77.3
				c-1.5-2.1-3.7-3.4-6.2-3.7l-99-9.5C891.7,478.6,887.3,482.2,886.8,487z"/>
			<path class="st8" d="M882,619.2h47.2c3.3,0,6-1.6,6-3.6l0,0c0-2-2.7-3.6-6-3.6H882c-3.3,0-6,1.6-6,3.6l0,0
				C876,617.6,878.7,619.2,882,619.2z"/>
			<path class="st8" d="M1055.5,720.2l-9.8-13.6c-10.5-14.6-27.4-23.2-45.4-23.2l0,0c-17.8,0-34.5,8.4-45.1,22.7l-10.4,14.1"/>
			<path class="st8" d="M637.3,720.2l-9.8-13.6C616.9,692,600,683.3,582,683.3l0,0c-17.8,0-34.5,8.4-45.1,22.7l-10.4,14.1"/>
		</g>
		<circle class="st9" cx="1000.1" cy="744.1" r="50.2"/>
		
			<ellipse transform="matrix(0.7071 -0.7071 0.7071 0.7071 -233.2546 925.1547)" class="st7" cx="1000.1" cy="744.1" rx="31" ry="31"/>
		<circle class="st9" cx="582.5" cy="744.1" r="50.2"/>
		
			<ellipse transform="matrix(0.7071 -0.7071 0.7071 0.7071 -355.5681 629.8639)" class="st7" cx="582.5" cy="744.1" rx="31" ry="31"/>
		
			<rect x="864.6" y="433.5" transform="matrix(-1 -3.943080e-11 3.943080e-11 -1 1733.9545 1165.7148)" class="st8" width="4.8" height="298.7"/>
	</g>
	<g>
		<g id="XMLID_1810_">
			<path id="XMLID_1812_" class="st10" d="M502.3,164.6H248.5c-19.9,0-36,16.1-36,36v557.2c0,19.9,16.1,36,36,36h253.8
				c19.9,0,36-16.1,36-36V200.6C538.2,180.7,522.1,164.6,502.3,164.6z M520.2,724.1c0,13.2-10.7,23.9-23.9,23.9H254.5
				c-13.2,0-23.9-10.7-23.9-23.9v-490c0-13.2,10.7-23.9,23.9-23.9h241.9c13.2,0,23.9,10.7,23.9,23.9V724.1z"/>
			<path id="XMLID_1811_" class="st11" d="M500.1,197.9H250.8c-11.1,0-20.2,9.3-20.2,20.8v512.7c0,11.5,9,20.8,20.2,20.8h249.3
				c11.1,0,20.2-9.3,20.2-20.8V218.7C520.2,207.2,511.2,197.9,500.1,197.9z"/>
		</g>
		<path class="st10" d="M426.4,212H317.8c-1.9,0-3.5-1.6-3.5-3.5v-21.2c0-1.9,1.6-3.5,3.5-3.5h108.6c1.9,0,3.5,1.6,3.5,3.5v21.2
			C429.9,210.4,428.4,212,426.4,212z"/>
		<path id="XMLID_1808_" class="st12" d="M348.7,206.3c-4.6,0-8.4-3.8-8.4-8.4c0-4.6,3.8-8.4,8.4-8.4c4.6,0,8.4,3.8,8.4,8.4
			C357.1,202.5,353.3,206.3,348.7,206.3z"/>
		<path id="XMLID_1806_" class="st12" d="M414.3,197.9L414.3,197.9c0-2.8-2.3-5.1-5.1-5.1h-33.4c-2.8,0-5.1,2.3-5.1,5.1l0,0
			c0,2.8,2.3,5.1,5.1,5.1h33.4C412,203,414.3,200.7,414.3,197.9z"/>
	</g>
	<ellipse class="st10" cx="379.3" cy="671.3" rx="90.9" ry="4.7"/>
	<path class="st13" d="M474.7,461.8c0,3.3,0,6.6,0,9.9c-1.1,5.1-1.8,10.3-3.2,15.3c-4.8,16.9-12.7,32.4-21.9,47.2
		c-17,27.7-34.2,55.1-51.4,82.7c-6.1,9.8-12.1,19.6-18.2,29.4c-0.1,0-0.3,0-0.4,0c-0.3-0.6-0.5-1.3-0.8-1.9
		c-10.9-18.5-21.8-36.9-32.6-55.4c-10.6-18-21.4-35.9-31.5-54.3c-8.7-15.8-15.7-32.5-20.3-50.1c-1.1-4.1-1.7-8.4-2.5-12.6
		c0-3.4,0-6.9,0-10.3c0.3-2.5,0.6-4.9,1-7.4c5.7-38.1,35.4-68.7,73.4-75.7c3.6-0.7,7.2-1.1,10.8-1.6c4,0,8,0,12,0
		c1.8,0.2,3.7,0.5,5.5,0.7c41.6,5.1,74.1,37.6,79.3,78.9C474.2,458.4,474.4,460.1,474.7,461.8z M383,413.2
		c-28.8-0.2-52.4,23.3-52.5,52.3c-0.1,28.9,23.5,52.4,52.4,52.4c28.8,0,52.1-23.4,52.2-52.3C435.3,436.9,411.9,413.4,383,413.2z"/>
	<g>
		<path class="st2" d="M667.5,390.9c-1.5,0-2.8-1.2-2.8-2.8v-25.3c0-1.5,1.2-2.8,2.8-2.8c1.5,0,2.8,1.2,2.8,2.8v25.3
			C670.3,389.7,669.1,390.9,667.5,390.9z"/>
		<path class="st2" d="M680.2,378.3h-25.3c-1.5,0-2.8-1.2-2.8-2.8s1.2-2.8,2.8-2.8h25.3c1.5,0,2.8,1.2,2.8,2.8
			S681.7,378.3,680.2,378.3z"/>
	</g>
	<g>
		<path class="st2" d="M607.4,153.6c-1.5,0-2.8-1.2-2.8-2.8v-25.3c0-1.5,1.2-2.8,2.8-2.8c1.5,0,2.8,1.2,2.8,2.8v25.3
			C610.2,152.3,608.9,153.6,607.4,153.6z"/>
		<path class="st2" d="M620.1,140.9h-25.3c-1.5,0-2.8-1.2-2.8-2.8s1.2-2.8,2.8-2.8h25.3c1.5,0,2.8,1.2,2.8,2.8
			S621.6,140.9,620.1,140.9z"/>
	</g>
	<g>
		<path class="st2" d="M392.5,30.8c-1.5,0-2.8-1.2-2.8-2.8V2.8c0-1.5,1.2-2.8,2.8-2.8s2.8,1.2,2.8,2.8v25.3
			C395.3,29.6,394.1,30.8,392.5,30.8z"/>
		<path class="st2" d="M405.2,18.2h-25.3c-1.5,0-2.8-1.2-2.8-2.8c0-1.5,1.2-2.8,2.8-2.8h25.3c1.5,0,2.8,1.2,2.8,2.8
			C408,16.9,406.7,18.2,405.2,18.2z"/>
	</g>
	<g>
		<path class="st2" d="M145.4,663.6c-1.5,0-2.8-1.2-2.8-2.8v-25.3c0-1.5,1.2-2.8,2.8-2.8s2.8,1.2,2.8,2.8v25.3
			C148.2,662.3,146.9,663.6,145.4,663.6z"/>
		<path class="st2" d="M158,650.9h-25.3c-1.5,0-2.8-1.2-2.8-2.8c0-1.5,1.2-2.8,2.8-2.8H158c1.5,0,2.8,1.2,2.8,2.8
			C160.8,649.7,159.6,650.9,158,650.9z"/>
	</g>
	<g>
		<path class="st2" d="M1121.4,559.1c-1.5,0-2.8-1.2-2.8-2.8V531c0-1.5,1.2-2.8,2.8-2.8s2.8,1.2,2.8,2.8v25.3
			C1124.2,557.8,1122.9,559.1,1121.4,559.1z"/>
		<path class="st2" d="M1134.1,546.4h-25.3c-1.5,0-2.8-1.2-2.8-2.8c0-1.5,1.2-2.8,2.8-2.8h25.3c1.5,0,2.8,1.2,2.8,2.8
			C1136.8,545.2,1135.6,546.4,1134.1,546.4z"/>
	</g>
	<g>
		<path class="st2" d="M130,221.3c-1.5,0-2.8-1.2-2.8-2.8v-25.3c0-1.5,1.2-2.8,2.8-2.8s2.8,1.2,2.8,2.8v25.3
			C132.8,220.1,131.5,221.3,130,221.3z"/>
		<path class="st2" d="M142.6,208.7h-25.3c-1.5,0-2.8-1.2-2.8-2.8s1.2-2.8,2.8-2.8h25.3c1.5,0,2.8,1.2,2.8,2.8
			S144.2,208.7,142.6,208.7z"/>
	</g>
	<path class="st2" d="M567.7,421.2c-8.9,0-16.2-7.3-16.2-16.2c0-8.9,7.3-16.2,16.2-16.2c8.9,0,16.2,7.3,16.2,16.2
		C583.8,414,576.6,421.2,567.7,421.2z M567.7,396.1c-4.9,0-9,4-9,9c0,4.9,4,9,9,9c4.9,0,9-4,9-9
		C576.6,400.1,572.6,396.1,567.7,396.1z"/>
	<path class="st2" d="M333.5,128.5c-8.9,0-16.2-7.3-16.2-16.2s7.3-16.2,16.2-16.2s16.2,7.3,16.2,16.2S342.4,128.5,333.5,128.5z
		 M333.5,103.3c-4.9,0-9,4-9,9s4,9,9,9c4.9,0,9-4,9-9S338.4,103.3,333.5,103.3z"/>
	<g>
		<g>
			<path class="st14" d="M463.9,726c5,28.5,15.6,112,20.3,119.9c6.2,10.2,49.8,90.1,49.8,90.1l25.1-4.2
				c-0.2-4.4-35.8-96.2-35.8-96.2s-5-66.7-5.7-81.3c-0.3-6.9-6.1-26.8-10.3-39.8L463.9,726z"/>
			<path class="st15" d="M500.9,721.4l-61.9-6.4l-39.5,106.4L385,935l25.9,10.1c14.3-23,24.7-103.1,24.7-103.1
				S494.9,735.5,500.9,721.4z"/>
		</g>
		<path class="st6" d="M433.3,719.4l9.7,3.5c22.1,7.9,71.2-3.6,71.2-3.6l-9.1-137.2l-46.4,6.2c-23.2,6.5-19.3,21.2-23.5,35.5
			C435.2,623.8,432.7,703.3,433.3,719.4z"/>
		<path class="st6" d="M414.2,607.7c0,0,48.4-21,73.7-12c27.2,9.7-31.1,27.7-59.7,43.3c-10,5.5-22.4,4.3-31.2-3.1l-63.5-52.7
			l15.2-12.9L414.2,607.7z"/>
		<path class="st16" d="M347.5,571.5c0,0-17.9-20.4-19.4-17.4c-1.5,3-1.5,17.6,7,28L347.5,571.5z"/>
		<path class="st16" d="M474.7,446.7c0,0-8.4-21.5-11-23.2c-2.6-1.7-3.7,12.2-1.8,24.7L474.7,446.7z"/>
		<path class="st6" d="M505.5,595.3l8.4-41.6c4-19.8,0.4-40.4-10-57.8c-11.5-19.3-25.6-42.9-29.2-49.3l-16,1.7l29.2,76.4L466,601
			L505.5,595.3z"/>
	</g>
	<path class="st17" d="M446.8,533.5c0,0-11.9,17.3-9.3,32.8s15.5,17.9,21.8,17.3c6.3-0.6,21-11.7,21-11.7l-6.6-33.6L446.8,533.5z"/>
	<path class="st17" d="M458.8,570.8c0,0-3.7,21.5,0,25.5c5.7,6.2,15.3,5.8,18.6,1.8s6.6-31.7,6.6-31.7L458.8,570.8z"/>
	<path class="st18" d="M446.2,539.6c0,0-15.4-12.9-5.2-20.6c10.2-7.7,15.3,1.7,19.2,0s12.9-7.7,18.3-5c5.4,2.7,15,8.4,15.9,16.8
		s7.5,12.9,1.5,28.8c-6,15.9-10,23.1-25.8,15.6c-15.9-7.5-6.8-15.4-6.8-21.2C463.2,548.3,446.2,539.6,446.2,539.6z"/>
	<path class="st6" d="M447.4,599.7l2.7-6.8c0,0,25.8-3.2,36.2-8.7c10.4-5.5,10.4-5.5,10.4-5.5l1.7,36.3l-26.4,14.1L447.4,599.7z"/>
</g>
</svg>
