<?xml version="1.0" encoding="iso-8859-1"?>
<!-- Generator: Adobe Illustrator 19.0.0, SVG Export Plug-In . SVG Version: 6.00 Build 0)  -->
<svg version="1.1" id="Layer_1" xmlns="http://www.w3.org/2000/svg" xmlns:xlink="http://www.w3.org/1999/xlink" x="0px" y="0px"
	 viewBox="0 0 490 490" style="enable-background:new 0 0 490 490;" xml:space="preserve">
<g>
	<g id="XMLID_27_">
		<g>
			<rect x="240" y="440" style="fill:#704324;" width="35" height="40"/>
			<rect x="415" y="440" style="fill:#704324;" width="35" height="40"/>
			<polygon style="fill:#A26234;" points="465,350 465,440 450,440 415,440 275,440 240,440 225,440 225,350 			"/>
			<rect x="225" y="265" style="fill:#A26234;" width="240" height="85"/>
			<polygon style="fill:#704324;" points="480,230 480,265 465,265 225,265 205,265 205,230 290,230 			"/>
			<rect x="10" y="375" style="fill:#E7ECED;" width="140" height="105"/>
			<rect x="10" y="10" style="fill:#AFB6BB;" width="140" height="365"/>
			<polygon style="fill:#AFB6BB;" points="290,10 290,230 205,230 205,265 225,265 225,350 225,440 240,440 240,480 239.702,480 
				150,480 150,375 150,10 			"/>
		</g>
		<g>
			<path style="fill:#231F20;" d="M480,220H300V10c0-5.522-4.477-10-10-10H10C4.477,0,0,4.478,0,10v470c0,5.522,4.477,10,10,10h265
				c5.523,0,10-4.478,10-10v-30h120v30c0,5.522,4.477,10,10,10h35c5.523,0,10-4.478,10-10v-30h5c5.523,0,10-4.478,10-10V275h5
				c5.523,0,10-4.478,10-10v-35C490,224.478,485.523,220,480,220z M470,255H215v-15h255V255z M455,340H235v-65h220V340z M140,20v345
				H20V20H140z M20,470v-85h120v85H20z M160,20h120v200h-75c-5.523,0-10,4.478-10,10v35c0,5.522,4.477,10,10,10h10v165
				c0,5.522,4.477,10,10,10h5v20h-70V20z M265,470h-15v-20h15V470z M440,470h-15v-20h15V470z M235,430v-70h220v70H235z"/>
			<rect x="330" y="295" style="fill:#231F20;" width="30" height="20"/>
			<rect x="330" y="380" style="fill:#231F20;" width="30" height="20"/>
			<rect x="180" y="160" style="fill:#231F20;" width="20" height="40"/>
			<rect x="100" y="160" style="fill:#231F20;" width="20" height="40"/>
			<rect x="65" y="415" style="fill:#231F20;" width="30" height="20"/>
		</g>
	</g>
</g>
<g>
</g>
<g>
</g>
<g>
</g>
<g>
</g>
<g>
</g>
<g>
</g>
<g>
</g>
<g>
</g>
<g>
</g>
<g>
</g>
<g>
</g>
<g>
</g>
<g>
</g>
<g>
</g>
<g>
</g>
</svg>
