<svg width="62" height="57" viewBox="0 0 62 57" fill="none" xmlns="http://www.w3.org/2000/svg">
<path d="M33.3644 0.000139356C17.649 0.000139356 4.86438 12.7854 4.86438 28.5001H0L8.24883 38.8225L16.4971 28.5001H10.33C10.33 15.7987 20.6617 5.46589 33.3642 5.46589C46.0652 5.46589 56.3985 15.7985 56.3985 28.5001C56.3985 41.2017 46.0653 51.5344 33.3642 51.5344C27.1655 51.5344 21.348 49.1074 16.9879 44.699L13.1018 48.5437C18.4971 53.9962 25.6927 57 33.3627 57C49.0768 57 61.8627 44.2147 61.8627 28.5C61.8638 12.7846 49.078 0 33.3641 0L33.3644 0.000139356ZM30.6312 13.4042V29.8168L39.9901 37.2742L43.3953 32.9992L36.0963 27.1828V13.4041L30.6312 13.4042Z" fill="white"/>
</svg>
