<svg width="64" height="81" viewBox="0 0 64 81" fill="none" xmlns="http://www.w3.org/2000/svg">
<path d="M31.8465 0C14.2881 0 0 14.2871 0 31.8465C0 41.4175 7.79576 52.8168 15.294 62.4203C22.792 72.0237 30.2744 79.5438 30.2744 79.5438C30.7176 79.9896 31.3194 80.2398 31.9476 80.2398C32.5758 80.2398 33.1777 79.9896 33.6208 79.5438C33.6208 79.5438 41.0552 72.0233 48.5 62.4203C55.9447 52.817 63.6925 41.4079 63.6925 31.8465C63.6925 14.2881 49.4054 0 31.8459 0H31.8465ZM31.8465 4.72C46.8546 4.72 58.968 16.8381 58.968 31.8465C58.968 38.569 52.0158 50.1854 44.7711 59.531C38.364 67.7955 33.3279 72.8448 31.9293 74.2856C30.5201 72.8441 25.4565 67.7765 19.0046 59.5125C11.7086 50.1679 4.72017 38.559 4.72017 31.8465C4.72017 16.8384 16.8383 4.72 31.8467 4.72H31.8465ZM31.7405 11.2193C31.1742 11.2456 30.6356 11.4748 30.224 11.8646L11.0254 29.9658C10.5474 30.3898 10.2616 30.9897 10.2339 31.6278C10.2056 32.2659 10.4374 32.8881 10.8759 33.3523C11.3152 33.8172 11.9229 34.0838 12.5617 34.0918C13.201 34.0997 13.8154 33.8481 14.2657 33.3951L15.9389 31.8187V44.7388C15.9442 46.0354 16.9938 47.0843 18.2897 47.0896H45.3791C46.6822 47.0948 47.743 46.0426 47.7484 44.7388V31.8187L49.4216 33.3951C49.872 33.8488 50.487 34.0997 51.1257 34.0918C51.7644 34.0838 52.3728 33.8172 52.8114 33.3529C53.2499 32.8881 53.4817 32.2658 53.4534 31.6278C53.4258 30.9897 53.14 30.3898 52.6619 29.9658L33.4633 11.8646C32.9997 11.4254 32.3775 11.1922 31.7393 11.2193L31.7405 11.2193ZM31.8465 16.8288L43.0289 27.3704V42.3694H38.4287V32.1597C38.434 30.8566 37.3811 29.7958 36.078 29.7904H27.6107C26.9818 29.7885 26.3773 30.0374 25.9328 30.4819C25.4877 30.927 25.2388 31.5308 25.2414 32.1597V42.3694H20.6597V27.3704L31.8465 16.8288ZM29.9612 34.5103H33.7086V42.3692H29.9612V34.5103Z" fill="white"/>
</svg>
