<svg width="35" height="47" viewBox="0 0 35 47" fill="none" xmlns="http://www.w3.org/2000/svg">
<rect width="35" height="47" fill="black"/>
<path fill-rule="evenodd" clip-rule="evenodd" d="M16.416 33.65V35.43C16.416 36.26 17.087 36.93 17.916 36.93C18.744 36.93 19.416 36.26 19.416 35.43V33.64C20.335 33.11 20.963 32.13 20.963 31C20.963 29.32 19.596 27.95 17.916 27.95C16.235 27.95 14.868 29.32 14.868 31C14.868 32.11 15.468 33.11 16.416 33.65ZM31.854 40.16C31.854 40.52 31.77 43.73 28.856 43.85C24.507 44.02 7.218 43.87 7.003 43.86C6.736 43.86 4.394 43.73 3.947 39.54V22.16H31.854V40.16ZM17.856 3.97C26.281 3.97 26.764 10.96 26.791 11.71V19.16H8.922L8.921 12.12C8.93 11.78 9.22 3.97 17.856 3.97ZM33.354 19.16H29.791L29.79 11.67C29.696 7.97 27.08 0.970001 17.856 0.970001C8.631 0.970001 6.016 8.21 5.922 12.08V19.16H2.447C1.619 19.16 0.946999 19.83 0.946999 20.66V39.62C0.946999 39.67 0.949999 39.72 0.954999 39.77C1.534 45.54 5.229 46.97 7.015 46.86C7.47 46.87 14.444 46.93 20.598 46.93C24.117 46.93 27.369 46.91 28.978 46.85C33.625 46.66 34.854 42.39 34.854 40.16V20.66C34.854 19.83 34.182 19.16 33.354 19.16Z" fill="white"/>
</svg>
