<svg width="70" height="48" viewBox="0 0 70 48" fill="none" xmlns="http://www.w3.org/2000/svg">
<path fill-rule="evenodd" clip-rule="evenodd" d="M64.3178 42.5354H5.68221C5.24225 42.5354 4.87047 42.1653 4.87047 41.7237V7.11413L33.6663 25.9612C34.0722 26.2259 34.5349 26.3606 34.9992 26.3606C35.4716 26.3606 35.9424 26.2242 36.3516 25.9515L65.1295 6.74722V41.7237C65.1295 42.1653 64.7578 42.5354 64.3178 42.5354ZM59.1648 4.87047L34.9878 21.0063L10.3368 4.87047H59.1648ZM67.0923 0.754923C66.2676 0.288981 65.3308 0 64.3178 0H5.68221C2.5505 0 0 2.54888 0 5.68221V41.7237C0 44.857 2.5505 47.4059 5.68221 47.4059H64.3178C67.4495 47.4059 70 44.857 70 41.7237V5.68221C70 4.06035 69.3068 2.60408 68.2125 1.56667C67.9154 1.1819 67.5258 0.905907 67.0923 0.754923Z" fill="white"/>
</svg>
