<svg width="58" height="66" viewBox="0 0 58 66" fill="none" xmlns="http://www.w3.org/2000/svg">
<path d="M57 64.4668V57.6223C57 53.9918 55.525 50.51 52.8995 47.9428C50.274 45.3757 46.713 43.9334 43 43.9334H15C11.287 43.9334 7.72601 45.3757 5.1005 47.9428C2.475 50.51 1 53.9918 1 57.6223V64.4668" fill="#8A365E"/>
<path d="M57 64.4668V57.6223C57 53.9918 55.525 50.51 52.8995 47.9428C50.274 45.3757 46.713 43.9334 43 43.9334H15C11.287 43.9334 7.72601 45.3757 5.1005 47.9428C2.475 50.51 1 53.9918 1 57.6223V64.4668" stroke="#8A365E" stroke-width="2" stroke-linecap="round" stroke-linejoin="round"/>
<path d="M29.9334 29C37.6653 29 43.9334 22.732 43.9334 15C43.9334 7.26801 37.6653 1 29.9334 1C22.2014 1 15.9334 7.26801 15.9334 15C15.9334 22.732 22.2014 29 29.9334 29Z" fill="#8A365E" stroke="#8A365E" stroke-width="2" stroke-linecap="round" stroke-linejoin="round"/>
</svg>
