<svg width="65" height="65" viewBox="0 0 65 65" fill="currentColor" xmlns="http://www.w3.org/2000/svg">
<path d="M64.5357 32.5C64.5357 35.2295 62.3287 37.439 59.6072 37.439H37.4286V59.6578C37.4286 62.3873 35.2215 64.5938 32.5 64.5938C29.7785 64.5938 27.5714 62.3873 27.5714 59.6578V37.439H5.39287C2.67137 37.439 0.464294 35.2295 0.464294 32.5C0.464294 29.7705 2.67137 27.564 5.39287 27.564H27.5714V5.34529C27.5714 2.61578 29.7785 0.40625 32.5 0.40625C35.2215 0.40625 37.4286 2.61578 37.4286 5.34529V27.564H59.6072C62.3333 27.5625 64.5357 29.7689 64.5357 32.5Z" fill="currentColor"/>
</svg>
