<svg width="94" height="98" viewBox="0 0 94 98" fill="none" xmlns="http://www.w3.org/2000/svg">
<path d="M80.2978 20.5285H75.3103V11.656C75.3103 5.21912 70.3228 0 64.1715 0H29.0938C22.9425 0 17.955 5.21912 17.955 11.656V20.5285H12.9675C5.81875 20.5285 0 26.6175 0 34.0982V54.4538H35.7428V52.1922C35.7428 49.2347 38.0703 46.9731 40.7303 46.9731H52.2015C55.0278 46.9731 57.189 49.4086 57.189 52.1922V54.4538H93.2663V34.0982C93.2663 26.6175 87.4475 20.5285 80.2988 20.5285H80.2978ZM68.1615 20.5285H25.269V11.656C25.269 9.39441 27.0978 7.48074 29.0928 7.48074H64.3378C66.499 7.48074 68.1615 9.39441 68.1615 11.656V20.5285Z" fill="white"/>
<path d="M57.5225 64.0212C57.5225 66.9787 55.195 69.2403 52.535 69.2403H41.0637C38.2375 69.2403 36.0762 66.8047 36.0762 64.0212V61.7596H0.166248V83.8528C0.166248 91.3336 5.985 97.4225 13.1337 97.4225H80.4659C87.6147 97.4225 93.4334 91.3336 93.4334 83.8528V61.9325H57.5234L57.5225 64.0212Z" fill="white"/>
<path d="M51.3703 65.5879C52.7003 65.5879 53.864 64.3701 53.864 62.9784V53.062C53.864 51.6703 52.7003 50.4525 51.3703 50.4525H41.894C40.564 50.4525 39.4003 51.6703 39.4003 53.062V62.9784C39.4003 64.3701 40.564 65.5879 41.894 65.5879H51.3703Z" fill="white"/>
</svg>
