<svg width="66" height="53" viewBox="0 0 66 53" fill="currentColor" xmlns="http://www.w3.org/2000/svg">
<path d="M0 4.96875C0 2.22455 2.21616 0 4.95 0H37.95C40.6828 0 42.9 2.22455 42.9 4.96875V9.9375H48.1284C49.8816 9.9375 51.4697 10.6311 52.8 11.8732L60.7716 19.875C62.0091 21.1172 62.7 22.8045 62.7 24.5643V36.4375C64.5253 36.4375 66 37.9178 66 39.75C66 41.5822 64.5253 43.0625 62.7 43.0625H59.4C59.4 48.5488 54.9656 53 49.5 53C43.9416 53 39.6 48.5488 39.6 43.0625H26.4C26.4 48.5488 21.9656 53 16.5 53C10.9416 53 6.6 48.5488 6.6 43.0625H4.95C2.21616 43.0625 0 40.8369 0 38.0938V4.96875ZM56.1 26.5V24.5643L48.1284 16.5625H42.9V26.5H56.1ZM16.5 48.0312C19.2328 48.0312 21.45 45.8057 21.45 43.0625C21.45 40.3193 19.2328 38.0938 16.5 38.0938C13.7672 38.0938 11.55 40.3193 11.55 43.0625C11.55 45.8057 13.7672 48.0312 16.5 48.0312ZM49.5 38.0938C46.7672 38.0938 44.55 40.3193 44.55 43.0625C44.55 45.8057 46.7672 48.0312 49.5 48.0312C52.2328 48.0312 54.45 45.8057 54.45 43.0625C54.45 40.3193 52.2328 38.0938 49.5 38.0938ZM26.4103 9.83709C25.5338 8.86715 23.9662 8.86715 22.9969 9.83709C22.0378 10.807 22.0378 12.3805 22.9969 13.2604L27.0291 17.3906H9.9C8.53359 17.3906 7.425 18.4982 7.425 19.875C7.425 21.2518 8.53359 22.3594 9.9 22.3594H27.0291L22.9969 26.3965C22.0378 27.3695 22.0378 28.943 22.9969 29.8229C23.9662 30.8787 25.5338 30.8787 26.4103 29.8229L34.6603 21.5416C35.7122 20.6617 35.7122 19.0883 34.6603 18.1152L26.4103 9.83709Z" fill="currentColor"/>
</svg>
