<svg width="84" height="38" viewBox="0 0 84 38" fill="currentColor" xmlns="http://www.w3.org/2000/svg">
<path d="M80.5076 0.000963245H3.14865C1.41305 0.000963245 0 1.41337 0 3.14961V34.8514C0 36.5869 1.41241 38 3.14865 38H80.5076C82.2432 38 83.6562 36.5876 83.6562 34.8514V3.14801C83.6562 1.41241 82.2438 0 80.5076 0V0.000963245ZM80.9575 34.851C80.9575 35.0989 80.7554 35.3009 80.5076 35.3009L3.14865 35.3003C2.9008 35.3003 2.69876 35.0983 2.69876 34.8504V3.14866C2.69876 2.90081 2.90017 2.69877 3.14865 2.69877H80.5076C80.7554 2.69877 80.9575 2.90019 80.9575 3.14866V34.851ZM75.0405 6.10647H8.61563C7.37576 6.10647 6.36682 7.11541 6.36682 8.35592V29.6425C6.36682 30.883 7.37576 31.8913 8.61563 31.8913H75.0405C76.281 31.8913 77.2893 30.883 77.2893 29.6425L77.29 8.35431C77.29 7.11382 76.281 6.10551 75.0412 6.10551L75.0405 6.10647ZM17.0454 29.1937H9.06474V8.80504H17.0454V29.1937ZM74.5908 29.1937H19.744V8.80504H74.5908V29.1937ZM13.0554 18.3506C14.929 18.3506 16.4537 16.8265 16.4537 14.953C16.4537 13.0794 14.929 11.554 13.0554 11.554C11.1818 11.554 9.65714 13.0788 9.65714 14.953C9.65714 16.8265 11.1819 18.3506 13.0554 18.3506ZM13.0554 14.2526C13.4413 14.2526 13.755 14.567 13.755 14.9529C13.755 15.3388 13.4407 15.6518 13.0554 15.6518C12.6695 15.6518 12.3558 15.3381 12.3558 14.9529C12.3558 14.5676 12.6695 14.2526 13.0554 14.2526ZM15.537 25.0957C15.537 25.8405 14.9334 26.4447 14.1879 26.4447H11.9223C11.1769 26.4447 10.5732 25.8405 10.5732 25.0957C10.5732 24.3509 11.1769 23.7467 11.9223 23.7467H14.1879C14.9334 23.7461 15.537 24.3503 15.537 25.0957ZM47.6162 25.1465H51.4424C52.6822 25.1465 53.6912 24.1382 53.6912 22.8977V15.1016C53.6912 13.8611 52.6822 12.8528 51.4424 12.8528H47.6162C46.3763 12.8528 45.3674 13.8611 45.3674 15.1016V22.8977C45.3674 24.1382 46.3763 25.1465 47.6162 25.1465ZM48.0661 15.5515H50.9926V22.448H48.0661V15.5515ZM56.8975 25.1465H60.7236C61.9635 25.1465 62.9724 24.1382 62.9724 22.8977V15.1016C62.9724 13.8611 61.9635 12.8528 60.7236 12.8528H56.8975C55.6576 12.8528 54.6487 13.8611 54.6487 15.1016V22.8977C54.6487 24.1382 55.6576 25.1465 56.8975 25.1465ZM57.3473 15.5515H60.2738V22.448H57.3473V15.5515ZM66.1787 25.1465H70.0049C71.2448 25.1465 72.2531 24.1382 72.2531 22.8977V15.1016C72.2531 13.8611 71.2448 12.8528 70.0049 12.8528H66.1787C64.9389 12.8528 63.9299 13.8611 63.9299 15.1016V22.8977C63.9299 24.1382 64.9389 25.1465 66.1787 25.1465ZM66.6286 15.5515H69.5551V22.448H66.6286V15.5515ZM24.3286 25.1465H28.1541C29.394 25.1465 30.4029 24.1382 30.4029 22.8977V15.1016C30.4029 13.8611 29.394 12.8528 28.1541 12.8528H24.3286C23.0887 12.8528 22.0798 13.8611 22.0798 15.1016V22.8977C22.0798 24.1382 23.0887 25.1465 24.3286 25.1465ZM24.7785 15.5515H27.7043V22.448H24.7785V15.5515ZM33.6099 25.1465H37.4354C38.6753 25.1465 39.6842 24.1382 39.6842 22.8977V15.1016C39.6842 13.8611 38.6753 12.8528 37.4354 12.8528H33.6099C32.37 12.8528 31.361 13.8611 31.361 15.1016V22.8977C31.361 24.1382 32.37 25.1465 33.6099 25.1465ZM34.0597 15.5515H36.9856V22.448H34.0597V15.5515Z" fill="white"/>
</svg>
