<svg width="109" height="74" viewBox="0 0 109 74" fill="none" xmlns="http://www.w3.org/2000/svg">
<path d="M53.8766 2.34366C53.8096 2.36571 53.7394 2.3765 53.6689 2.37561C53.6003 2.38166 53.5149 2.38771 53.4134 2.3951L53.249 2.40563C53.1901 2.40915 53.1279 2.41775 53.061 2.42489L52.6149 2.47136C52.4511 2.49182 52.2731 2.52196 52.0799 2.54956C51.6942 2.61129 51.2529 2.70257 50.7629 2.83003C50.701 2.84395 50.6398 2.86321 50.5775 2.88197L50.3881 2.93874L50.1937 2.99696L50.0947 3.0265L49.996 3.06124L49.5893 3.20481C49.5195 3.22793 49.4506 3.25625 49.3811 3.28506L49.1699 3.37137C48.5526 3.62372 47.9567 3.92529 47.3878 4.27318C46.0006 5.12044 44.7857 6.2219 43.807 7.51972C42.6245 9.09195 41.8246 10.9181 41.4708 12.8534C41.4482 12.9832 41.4254 13.1137 41.4025 13.2447C41.3864 13.3767 41.3699 13.5092 41.353 13.6423C41.3139 13.9077 41.3039 14.1784 41.282 14.4499C41.2758 14.5178 41.2743 14.5859 41.2734 14.6543C41.2724 14.7227 41.2705 14.7913 41.269 14.8601C41.2675 14.929 41.266 14.9976 41.2645 15.0665C41.2631 15.1354 41.2611 15.2044 41.2645 15.2736C41.2744 15.5501 41.274 15.8292 41.3028 16.1089C41.3449 16.6768 41.4255 17.2412 41.544 17.7982C41.5769 17.9386 41.61 18.0796 41.643 18.221L41.6673 18.3271L41.6972 18.4322C41.7172 18.5021 41.7374 18.5722 41.7577 18.6425C41.8321 18.9254 41.9343 19.2015 42.0286 19.4821C42.0798 19.6209 42.1375 19.7579 42.1914 19.8965C42.2192 19.9656 42.2456 20.0353 42.2747 20.1041C42.3057 20.1719 42.3367 20.24 42.3676 20.3082L42.4608 20.513C42.4922 20.5813 42.5214 20.6505 42.5577 20.7167L42.7653 21.1197C43.0579 21.6582 43.3873 22.1759 43.7511 22.6691C44.1274 23.1692 44.5372 23.6433 44.9776 24.088C45.4324 24.5355 45.918 24.9504 46.431 25.3298L46.8255 25.6096L47.2343 25.8719L47.3368 25.9376C47.3712 25.9592 47.4072 25.9783 47.4421 25.9989L47.654 26.12L47.8662 26.2417C47.9388 26.2801 48.0114 26.3163 48.0841 26.3538L48.3027 26.4656L48.4116 26.5216C48.4479 26.5393 48.4863 26.5555 48.5236 26.5726L48.9735 26.7756L49.4346 26.9571L49.5501 27.0027L49.6679 27.0424L49.9037 27.1219L50.14 27.2014L50.3804 27.2694L50.621 27.3377C50.6613 27.3489 50.7013 27.361 50.742 27.3714L50.8643 27.3995L51.3542 27.5117L51.8505 27.6002C53.1919 27.819 54.5599 27.819 55.9013 27.6002L56.3976 27.5117L56.8876 27.3995L57.0098 27.3714C57.0503 27.361 57.0902 27.3489 57.1309 27.3377L57.3717 27.2694L57.6121 27.2014L57.8484 27.1219L58.0842 27.0424L58.2019 27.0027L58.3174 26.9571L58.7784 26.7756L59.2283 26.5726C59.2657 26.5555 59.3034 26.5393 59.3404 26.5216L59.4493 26.4656L59.6681 26.3538C59.7407 26.3163 59.8141 26.2801 59.886 26.2417L60.098 26.12L60.3099 25.9989C60.345 25.9783 60.3808 25.9592 60.4152 25.9376L60.5177 25.8719L60.9265 25.6096L61.3211 25.3298C61.8341 24.9504 62.3197 24.5354 62.7746 24.088C63.2149 23.6433 63.6247 23.1693 64.0009 22.6691C64.3648 22.1759 64.6942 21.6582 64.9867 21.1197L65.1943 20.7167C65.2306 20.6505 65.2601 20.5813 65.2912 20.513C65.3223 20.4447 65.3534 20.3764 65.3844 20.3082L65.4775 20.1041C65.5065 20.0353 65.5329 19.9656 65.5607 19.8965C65.6149 19.7579 65.6722 19.6209 65.7236 19.4821C65.8179 19.2015 65.9199 18.9253 65.9945 18.6425C66.0146 18.5723 66.0347 18.5022 66.055 18.4322L66.0848 18.3271L66.1096 18.221C66.1427 18.0797 66.1757 17.9387 66.2086 17.7982C66.3271 17.2412 66.4077 16.6768 66.4498 16.1089C66.4785 15.8294 66.4781 15.5502 66.488 15.2736C66.4914 15.2044 66.49 15.1354 66.488 15.0665C66.4859 14.9976 66.485 14.9289 66.4835 14.8601C66.482 14.7914 66.4806 14.7231 66.4791 14.6543C66.4777 14.5856 66.4767 14.5178 66.4704 14.4499C66.4485 14.1784 66.4385 13.9077 66.3995 13.6423C66.3829 13.5093 66.3664 13.3767 66.3499 13.2447C66.3271 13.1137 66.3044 12.9833 66.2817 12.8534C65.9279 10.9181 65.128 9.09195 63.9455 7.51972C62.9668 6.22185 61.7519 5.12038 60.3646 4.27318C59.7958 3.92527 59.1998 3.6237 58.5826 3.37137L58.3714 3.28506C58.3019 3.25625 58.233 3.22793 58.1632 3.20481L57.7565 3.06124L57.6577 3.0265L57.5587 2.99696L57.3644 2.93874L57.175 2.88197C57.1126 2.86321 57.0514 2.84395 56.9896 2.83003C56.4996 2.70257 56.0583 2.61129 55.6726 2.54956C55.4789 2.52196 55.3012 2.49182 55.1376 2.47136L54.6914 2.42489C54.6248 2.41835 54.5622 2.40915 54.5035 2.40563L54.339 2.3951C54.2376 2.3882 54.1522 2.38166 54.0836 2.37561C54.013 2.37649 53.9428 2.3657 53.8758 2.34366C53.9437 2.325 54.0142 2.3178 54.0845 2.32235C54.1535 2.31969 54.2393 2.31752 54.3419 2.31582L54.5079 2.31352C54.5673 2.31279 54.6306 2.31775 54.6981 2.32005L55.1503 2.34184C55.3165 2.35395 55.4975 2.37622 55.6943 2.39619C56.1464 2.45136 56.5953 2.53051 57.039 2.63333C57.1022 2.64543 57.165 2.66335 57.2288 2.68042L57.4225 2.73259L57.6219 2.78622L57.7234 2.81357L57.8249 2.84614L58.2426 2.98159C58.3144 3.00338 58.3852 3.03001 58.4567 3.05797L58.6746 3.14076C59.3109 3.3836 59.9261 3.67867 60.5137 4.02297C61.9532 4.86579 63.2176 5.97697 64.2384 7.29625C65.4792 8.90342 66.3247 10.7798 66.7067 12.774C66.7309 12.9083 66.7556 13.043 66.7807 13.1783C66.8004 13.3144 66.817 13.4516 66.8355 13.5891C66.8779 13.8637 66.8911 14.1434 66.9156 14.4243C66.9227 14.4945 66.9246 14.5651 66.9263 14.6359C66.928 14.7068 66.9304 14.7776 66.9325 14.8486C66.9345 14.9197 66.9366 14.9909 66.9386 15.0622C66.9407 15.1334 66.9431 15.2049 66.9402 15.2765C66.9324 15.5628 66.9344 15.8518 66.9069 16.1415C66.8674 16.7307 66.7877 17.3164 66.6683 17.8947C66.635 18.0407 66.6017 18.1872 66.5684 18.3341L66.5432 18.4444L66.513 18.5533L66.4515 18.7721C66.3758 19.0661 66.2718 19.3531 66.1752 19.6452C66.1228 19.7896 66.0641 19.9322 66.0085 20.0765C65.9799 20.1484 65.9528 20.2209 65.923 20.2924L65.8275 20.5051L65.7318 20.7183C65.6996 20.7893 65.6691 20.8614 65.6322 20.9304C65.5611 21.0698 65.4898 21.2097 65.4185 21.35C65.1173 21.9112 64.7776 22.4508 64.4017 22.965C64.0127 23.4866 63.5885 23.981 63.132 24.4448C62.6607 24.9118 62.1568 25.3449 61.6242 25.7407L61.2145 26.0329L60.7897 26.307L60.6831 26.3755C60.6474 26.398 60.6104 26.4181 60.5741 26.4397L60.3541 26.5665L60.1334 26.6936C60.0585 26.7338 59.9823 26.7717 59.9068 26.8109L59.6792 26.9276L59.5653 26.9861C59.5269 27.0047 59.4877 27.0217 59.4489 27.0395L58.9806 27.2515L58.5009 27.4415L58.3806 27.4889L58.2581 27.5306L58.0126 27.6138L57.7665 27.6969L57.5163 27.7682L57.2656 27.8395C57.2237 27.8516 57.1821 27.8637 57.14 27.8746L57.0127 27.9041L56.5025 28.0213L55.9854 28.1139C54.589 28.3426 53.1647 28.3426 51.7683 28.1139L51.2513 28.0213L50.7411 27.9041L50.6139 27.8746C50.5717 27.8638 50.53 27.8511 50.4881 27.8395L50.2374 27.7682L49.9872 27.6969L49.7412 27.6138L49.4957 27.5306L49.3731 27.4889L49.2529 27.4415L48.7731 27.2515L48.305 27.0395C48.2661 27.0217 48.2269 27.0047 48.1884 26.9861L48.0745 26.9276L47.847 26.8109C47.7714 26.7717 47.6952 26.7338 47.6204 26.6936L47.3998 26.5665L47.1796 26.4397C47.1433 26.4181 47.1059 26.398 47.0706 26.3755L46.964 26.307L46.5394 26.0329L46.1295 25.7407C45.5969 25.3449 45.0931 24.9118 44.6217 24.4448C44.1649 23.9811 43.7403 23.4868 43.3509 22.9652C42.975 22.4511 42.6352 21.9115 42.3341 21.3503L42.1205 20.9306C42.0835 20.8616 42.0529 20.7896 42.0207 20.7185L41.925 20.5054L41.8296 20.2927C41.7998 20.2211 41.7726 20.1486 41.7441 20.0767C41.6886 19.9324 41.6298 19.7898 41.5774 19.6454C41.4806 19.3537 41.3769 19.0663 41.301 18.7723C41.2805 18.6992 41.26 18.6263 41.2396 18.5536L41.2094 18.4446L41.1843 18.3343C41.1509 18.1874 41.1175 18.0409 41.0843 17.8949C40.965 17.3167 40.8852 16.7309 40.8456 16.1418C40.8181 15.852 40.8203 15.563 40.8124 15.2768C40.8095 15.2051 40.8113 15.1337 40.8139 15.0624L40.82 14.8489C40.822 14.7779 40.8241 14.7069 40.8263 14.6362C40.828 14.5654 40.83 14.4948 40.837 14.4246C40.8612 14.1436 40.8746 13.8639 40.917 13.5894C40.9354 13.4518 40.9522 13.3147 40.9719 13.1785C40.9966 13.0432 41.0213 12.9084 41.0458 12.7742C41.4278 10.78 42.2733 8.90363 43.5142 7.2965C44.535 5.97726 45.7994 4.86609 47.2388 4.02322C47.8265 3.67892 48.4416 3.38384 49.078 3.141L49.2953 3.05821C49.3668 3.03061 49.4376 3.00362 49.5094 2.98183L49.9273 2.84637L50.0287 2.81381L50.1303 2.78645L50.3296 2.73283L50.5233 2.68065C50.5872 2.66359 50.6499 2.6458 50.7131 2.63358C51.1569 2.53077 51.6058 2.4516 52.058 2.39643C52.2547 2.37646 52.4358 2.35443 52.602 2.34208L53.0542 2.3203C53.1216 2.318 53.1848 2.31303 53.2443 2.31375L53.4103 2.31606C53.5127 2.31775 53.5986 2.31993 53.6678 2.32259C53.7381 2.31792 53.8087 2.32505 53.8766 2.34366V2.34366Z" fill="white" stroke="white"/>
<path d="M64.5036 19.5863C64.487 19.5794 64.5234 19.4424 64.5954 19.2278C64.6342 19.1214 64.6692 18.9909 64.7148 18.8486C64.7377 18.7774 64.7615 18.7027 64.7863 18.6252C64.8111 18.5478 64.8314 18.4661 64.8558 18.3831C64.9566 18.0532 65.0267 17.749 65.0902 17.531C65.1454 17.3114 65.1833 17.1754 65.2019 17.1787C65.2187 17.1815 65.2128 17.324 65.1803 17.5497C65.1313 17.8434 65.0647 18.1338 64.9809 18.4195C64.9566 18.5031 64.9353 18.5858 64.9082 18.6634C64.8811 18.741 64.854 18.8155 64.8287 18.8867C64.7763 19.0285 64.7319 19.157 64.6817 19.26C64.5868 19.4685 64.5201 19.5932 64.5036 19.5863Z" fill="white" stroke="white"/>
<path d="M62.0094 23.317C61.9811 23.2882 62.3631 22.8774 62.7948 22.3399L62.9514 22.1428C63.0024 22.0795 63.0525 22.019 63.096 21.9582C63.1853 21.8382 63.2672 21.7312 63.3381 21.6424C63.4751 21.462 63.5608 21.3501 63.5771 21.3605C63.5912 21.3693 63.5327 21.4991 63.4141 21.6944C63.3528 21.7907 63.2779 21.9042 63.193 22.0293C63.1518 22.0928 63.1032 22.1554 63.053 22.2205L62.8967 22.4215C62.4589 22.9662 62.0308 23.34 62.0094 23.317Z" fill="white" stroke="white"/>
<path d="M58.2786 25.811C58.2749 25.8023 58.3049 25.7827 58.3601 25.7505C58.4153 25.7183 58.4956 25.673 58.5963 25.6209C58.7998 25.5213 59.0745 25.3723 59.3788 25.2105C59.5283 25.1245 59.6716 25.0442 59.8024 24.9725C59.9303 24.8953 60.046 24.8261 60.1445 24.7701C60.1938 24.742 60.2387 24.7171 60.2785 24.6957C60.3184 24.6742 60.3512 24.6533 60.3791 24.6383C60.4353 24.6079 60.4688 24.5946 60.474 24.602C60.4792 24.6093 60.4554 24.6367 60.4079 24.68C60.3837 24.7016 60.3548 24.7277 60.3193 24.756C60.2839 24.7844 60.2415 24.8139 60.195 24.8472C60.1022 24.9135 59.9906 24.9915 59.8647 25.0751C59.7354 25.1532 59.5923 25.2377 59.441 25.3246C59.1801 25.4682 58.9105 25.5952 58.6337 25.7049C58.5273 25.7466 58.44 25.7776 58.3795 25.7972C58.319 25.8168 58.2818 25.8189 58.2786 25.811Z" fill="white" stroke="white"/>
<path d="M53.8771 26.6857C53.8771 26.645 54.4379 26.6241 55.1239 26.5517C55.295 26.5299 55.4582 26.5111 55.607 26.4956C55.7548 26.4738 55.8881 26.4538 56.0006 26.44C56.2263 26.4158 56.3651 26.3926 56.3694 26.4119C56.373 26.4277 56.2408 26.4824 56.0176 26.5306C55.9062 26.5561 55.7733 26.5856 55.6249 26.6142C55.4756 26.6365 55.311 26.6592 55.138 26.6813C54.4427 26.7541 53.8761 26.7165 53.8771 26.6857Z" fill="white" stroke="white"/>
<path d="M49.4752 25.811C49.4823 25.7944 49.6191 25.8309 49.8338 25.9029C49.9402 25.9416 50.0707 25.9766 50.213 26.0223L50.4363 26.0938C50.5135 26.1192 50.5956 26.1388 50.6784 26.1633C51.0085 26.264 51.3127 26.3342 51.5305 26.3976C51.7501 26.4528 51.8862 26.4907 51.8829 26.5094C51.8796 26.528 51.7377 26.5202 51.5118 26.4878C51.2181 26.4387 50.9277 26.3721 50.642 26.2883C50.5584 26.2641 50.4757 26.2428 50.3981 26.2157L50.1748 26.136C50.033 26.0836 49.9046 26.0392 49.8015 25.9891C49.593 25.8943 49.4683 25.8276 49.4752 25.811Z" fill="white" stroke="white"/>
<path d="M45.745 23.3171C45.7738 23.2888 46.1845 23.6708 46.722 24.1025L46.9191 24.2591C46.9824 24.3101 47.0429 24.3602 47.1037 24.4037C47.2236 24.4929 47.3306 24.5748 47.4194 24.6458C47.5998 24.7829 47.7119 24.8686 47.7014 24.885C47.6925 24.899 47.5628 24.8405 47.3675 24.7219C47.2707 24.6606 47.1576 24.5857 47.0326 24.5008C46.9691 24.4596 46.9064 24.4111 46.8414 24.3608L46.6404 24.2045C46.0956 23.7666 45.722 23.3386 45.745 23.3171Z" fill="white" stroke="white"/>
<path d="M43.2502 19.586C43.2588 19.5824 43.2784 19.6123 43.3108 19.6676C43.3431 19.7229 43.3884 19.8031 43.4403 19.9038C43.5399 20.1073 43.6889 20.3819 43.8509 20.6862C43.9368 20.8357 44.0171 20.9791 44.0887 21.1099C44.166 21.2377 44.2351 21.3535 44.2911 21.452C44.3192 21.5013 44.3442 21.5462 44.3656 21.586C44.387 21.6258 44.408 21.6586 44.423 21.6866C44.4533 21.7428 44.4667 21.7763 44.4593 21.7815C44.4519 21.7867 44.4244 21.7629 44.3811 21.7154C44.3597 21.6912 44.3335 21.6623 44.3051 21.6268C44.2766 21.5913 44.2472 21.549 44.214 21.5025C44.1476 21.4096 44.0697 21.2979 43.9861 21.1721C43.9079 21.0428 43.8235 20.8998 43.7366 20.7485C43.5929 20.4877 43.4659 20.218 43.3563 19.9412C43.3146 19.8348 43.283 19.7475 43.264 19.687C43.245 19.6265 43.2424 19.5893 43.2502 19.586Z" fill="white" stroke="white"/>
<path d="M42.3761 15.1843C42.4169 15.1843 42.4377 15.7451 42.51 16.4311C42.5318 16.6022 42.5507 16.7653 42.5663 16.9142C42.588 17.062 42.6079 17.1953 42.6217 17.3078C42.6459 17.5335 42.6692 17.6724 42.6499 17.6766C42.6342 17.6802 42.5795 17.548 42.5312 17.3248C42.5057 17.2135 42.4761 17.0805 42.4477 16.9321C42.4253 16.7828 42.4025 16.6183 42.3806 16.4452C42.3073 15.75 42.345 15.1833 42.3761 15.1843Z" fill="white" stroke="white"/>
<path d="M43.2504 10.7827C43.2669 10.7896 43.2305 10.9265 43.1585 11.1413C43.1197 11.2475 43.0848 11.3782 43.039 11.5204C43.0162 11.5916 42.9923 11.6663 42.9675 11.7437C42.9426 11.8212 42.9224 11.903 42.898 11.9858C42.7973 12.3158 42.7272 12.62 42.6636 12.838C42.6085 13.0576 42.5705 13.1936 42.552 13.1904C42.5335 13.1871 42.541 13.0451 42.5734 12.8192C42.6226 12.5256 42.6892 12.2352 42.7729 11.9495C42.7971 11.8659 42.8184 11.7832 42.8456 11.7056C42.8727 11.628 42.8998 11.5534 42.9251 11.4823C42.9775 11.3405 43.0219 11.2121 43.072 11.1089C43.1671 10.9005 43.2338 10.7758 43.2504 10.7827Z" fill="white" stroke="white"/>
<path d="M45.7446 7.05153C45.7729 7.08034 45.3907 7.49095 44.9591 8.02852L44.8026 8.22572C44.7515 8.28902 44.7014 8.34943 44.6573 8.41032C44.5681 8.53016 44.4861 8.63715 44.4152 8.726C44.278 8.90637 44.1923 9.01835 44.176 9.00794C44.162 8.9991 44.2204 8.86933 44.3392 8.67408C44.4004 8.57724 44.4754 8.46418 44.5602 8.33914C44.6014 8.27571 44.65 8.213 44.7003 8.14787L44.8564 7.94694C45.2951 7.40259 45.723 7.02865 45.7446 7.05153Z" fill="white" stroke="white"/>
<path d="M49.4754 4.55758C49.4791 4.5663 49.4492 4.58591 49.394 4.61811C49.3388 4.65031 49.2584 4.69559 49.1577 4.74764C48.9542 4.84726 48.6797 4.99627 48.3752 5.15823C48.2258 5.24418 48.0825 5.32443 47.9516 5.39609C47.8236 5.47332 47.708 5.54244 47.6093 5.59848C47.5601 5.62657 47.5152 5.6515 47.4753 5.67293C47.4355 5.69435 47.4027 5.71529 47.3748 5.7303C47.3187 5.76069 47.2852 5.77401 47.28 5.76662C47.2748 5.75924 47.2985 5.73188 47.3461 5.68855C47.3703 5.66712 47.3992 5.64086 47.4347 5.61254C47.4701 5.58421 47.5125 5.55466 47.5589 5.5215C47.6518 5.45504 47.7634 5.3772 47.8893 5.29344C48.0185 5.21536 48.1617 5.131 48.313 5.04408C48.5738 4.90039 48.8433 4.77336 49.1202 4.66375C49.2267 4.62211 49.3138 4.59111 49.3744 4.5715C49.4349 4.55189 49.4722 4.54971 49.4754 4.55758Z" fill="white" stroke="white"/>
<path d="M53.8773 3.68305C53.8773 3.72396 53.3165 3.74465 52.6305 3.81704C52.4595 3.83883 52.2963 3.85771 52.1475 3.87332C51.9997 3.89499 51.8665 3.91497 51.7539 3.92876C51.5282 3.95297 51.3894 3.97622 51.385 3.95697C51.3815 3.94112 51.5137 3.88641 51.7369 3.83823C51.8482 3.81269 51.9811 3.78315 52.1295 3.75458C52.2789 3.73231 52.4435 3.70955 52.6165 3.68764C53.3117 3.61429 53.8784 3.65206 53.8773 3.68305Z" fill="white" stroke="white"/>
<path d="M58.2788 4.55737C58.2719 4.57407 58.135 4.53764 57.9204 4.46562C57.814 4.42688 57.6835 4.39177 57.5411 4.34614L57.3178 4.2746C57.2405 4.2493 57.1586 4.22958 57.0757 4.20512C56.7457 4.10441 56.4415 4.0342 56.2235 3.97077C56.0039 3.91557 55.868 3.87769 55.8712 3.85904C55.8745 3.8404 56.0165 3.84815 56.2424 3.88059C56.536 3.92975 56.8264 3.99636 57.1121 4.08007C57.1956 4.10428 57.2783 4.12558 57.3559 4.1527L57.5792 4.23224C57.721 4.28465 57.8495 4.32908 57.9526 4.37919C58.161 4.47421 58.2857 4.5409 58.2788 4.55737Z" fill="white" stroke="white"/>
<path d="M62.0093 7.05179C61.9805 7.08012 61.5697 6.69798 61.0322 6.26632L60.8351 6.10979C60.7718 6.05871 60.7114 6.0086 60.6505 5.96454C60.5307 5.87532 60.4237 5.79337 60.3347 5.72244C60.1543 5.58529 60.0424 5.49958 60.0528 5.48324C60.0616 5.46919 60.1915 5.52766 60.3867 5.64641C60.483 5.70766 60.5965 5.7826 60.7217 5.86745C60.7851 5.90861 60.8477 5.95727 60.9128 6.00751L61.1138 6.16366C61.6585 6.60259 62.0323 7.03049 62.0093 7.05179Z" fill="white" stroke="white"/>
<path d="M64.5037 10.7825C64.495 10.7861 64.4754 10.7562 64.4432 10.7009C64.411 10.6456 64.3658 10.5654 64.3138 10.4647C64.2142 10.2612 64.0651 9.98656 63.9032 9.68224C63.8173 9.53275 63.7369 9.38942 63.6652 9.25857C63.588 9.13062 63.5189 9.01502 63.463 8.91636C63.4349 8.8671 63.4098 8.82219 63.3885 8.78237C63.3672 8.74254 63.346 8.70973 63.331 8.68177C63.3008 8.62573 63.2873 8.5922 63.2947 8.58699C63.3021 8.58179 63.3295 8.60552 63.3728 8.65297C63.3943 8.67718 63.4205 8.70622 63.4488 8.74169C63.4771 8.77716 63.5067 8.81952 63.54 8.86589C63.6063 8.95885 63.6842 9.07046 63.7679 9.19623C63.846 9.32551 63.9305 9.46871 64.0174 9.6199C64.161 9.8807 64.288 10.1503 64.3977 10.4271C64.4393 10.5335 64.4703 10.6207 64.4899 10.6813C64.5096 10.7418 64.5117 10.7792 64.5037 10.7825Z" fill="white" stroke="white"/>
<path d="M65.3783 15.1843C65.3375 15.1843 65.3166 14.6235 65.2443 13.9375C65.2225 13.7665 65.2036 13.6033 65.1881 13.4546C65.1663 13.3068 65.1464 13.1735 65.1326 13.0609C65.1084 12.8351 65.0851 12.6963 65.1044 12.6921C65.1202 12.6886 65.1749 12.8207 65.2231 13.044C65.2487 13.1552 65.2783 13.2881 65.3067 13.4365C65.329 13.5859 65.3517 13.7505 65.3738 13.9235C65.447 14.6187 65.4094 15.1854 65.3783 15.1843Z" fill="white" stroke="white"/>
<path d="M54.9077 15.1842C54.9077 15.3879 54.8473 15.5871 54.7341 15.7564C54.621 15.9258 54.4601 16.0579 54.2719 16.1358C54.0837 16.2138 53.8766 16.2342 53.6768 16.1944C53.477 16.1547 53.2934 16.0566 53.1494 15.9125C53.0054 15.7685 52.9073 15.585 52.8675 15.3852C52.8278 15.1854 52.8482 14.9783 52.9261 14.7901C53.0041 14.6018 53.1361 14.441 53.3055 14.3278C53.4749 14.2146 53.674 14.1542 53.8777 14.1542C54.013 14.1542 54.1469 14.1808 54.2719 14.2326C54.3969 14.2843 54.5104 14.3602 54.6061 14.4559C54.7017 14.5515 54.7776 14.665 54.8294 14.79C54.8811 14.915 54.9077 15.0489 54.9077 15.1842V15.1842Z" fill="white" stroke="white"/>
<path d="M98.0726 31.0255L98.0732 31.0257C99.2277 31.5743 100.462 32.2751 101.765 33.3022L101.765 33.3023C102.417 33.817 103.085 34.4228 103.767 35.1734C104.474 35.9302 105.168 36.8929 105.844 38.0543L105.844 38.0546C106.203 38.6765 106.551 39.4172 106.884 40.2699L106.885 40.2702C107.059 40.7213 107.227 41.2238 107.387 41.774M98.0726 31.0255L107.291 41.8019M98.0726 31.0255C95.7642 29.9464 93.769 29.4552 92.1387 29.1881C90.5091 28.9212 89.2404 28.8828 88.3768 28.9353C87.9458 28.9615 87.613 29.0095 87.3854 29.0676C87.2724 29.0965 87.1802 29.1292 87.114 29.1659C87.081 29.1842 87.0498 29.2059 87.0257 29.2326C87.0014 29.2594 86.9789 29.2976 86.9789 29.3455C86.9789 29.3932 87.0004 29.4317 87.0257 29.4596C87.0501 29.4866 87.0816 29.5081 87.1142 29.526C87.1794 29.5618 87.2707 29.5946 87.3814 29.6272C87.6044 29.6929 87.9339 29.7652 88.3587 29.8576C88.4556 29.8786 88.5577 29.9005 88.6648 29.9235C89.5017 30.1032 90.649 30.3494 92.0777 30.7832C93.6903 31.2727 95.6601 31.9539 97.9329 33.2074C99.0683 33.8381 100.279 34.6186 101.548 35.7119L101.549 35.712C102.182 36.2566 102.831 36.8897 103.489 37.6572L103.49 37.6583C104.159 38.4172 104.819 39.3733 105.465 40.5221M98.0726 31.0255L105.465 40.5221M107.387 41.774L107.291 41.8019M107.387 41.774C107.387 41.7738 107.387 41.7737 107.387 41.7735L107.291 41.8019M107.387 41.774C107.557 42.3484 107.712 43.0065 107.849 43.736M107.291 41.8019C107.46 42.3724 107.614 43.0274 107.751 43.7545M107.849 43.736C107.849 43.7359 107.849 43.7357 107.849 43.7356L107.751 43.7545M107.849 43.736C108 44.5219 108.116 45.4317 108.191 46.4158C108.269 47.4548 108.293 48.5622 108.26 49.6497L108.26 49.65C108.224 50.7178 108.142 51.7427 108.017 52.6637M107.849 43.736L107.751 43.7545M107.751 43.7545L108.017 52.6637M107.488 55.0071C107.57 54.6639 107.647 54.2999 107.719 53.9168C107.792 53.5174 107.859 53.0941 107.918 52.6503C108.042 51.7331 108.124 50.7116 108.16 49.6467C108.193 48.5625 108.169 47.4586 108.091 46.4233L107.488 55.0071ZM107.488 55.0071C107.169 56.3117 106.812 57.4078 106.426 58.264M107.488 55.0071L108.017 52.6637M108.017 52.6637C108.017 52.6636 108.017 52.6636 108.017 52.6635L107.919 52.6504L108.017 52.6637ZM108.017 52.6637C107.958 53.1088 107.891 53.5337 107.818 53.9348L107.818 53.9354C107.745 54.3198 107.668 54.6853 107.586 55.0302L107.586 55.0309C107.265 56.339 106.906 57.4413 106.517 58.3049M106.517 58.3049C106.518 58.3046 106.518 58.3043 106.518 58.3041L106.426 58.264M106.517 58.3049C106.517 58.3049 106.517 58.305 106.517 58.3051L106.426 58.264M106.517 58.3049C106.14 59.1689 105.75 59.9254 105.35 60.5693M106.426 58.264C106.05 59.1253 105.662 59.8778 105.265 60.517M105.265 60.517L105.35 60.5688C105.35 60.5689 105.35 60.5691 105.35 60.5693M105.265 60.517C104.868 61.1712 104.464 61.7273 104.054 62.2465C103.644 62.7657 103.228 63.2286 102.807 63.6555M105.265 60.517L105.35 60.5697C105.35 60.5696 105.35 60.5694 105.35 60.5693M105.35 60.5693C104.951 61.2277 104.544 61.7871 104.132 62.3084C103.72 62.8307 103.302 63.2963 102.879 63.7255C102.879 63.7256 102.879 63.7256 102.879 63.7257L102.807 63.6555M102.807 63.6555C101.967 64.5136 101.106 65.2249 100.231 65.8564C99.3553 66.488 98.4641 67.0357 97.5576 67.5222M102.807 63.6555L97.5576 67.5222M97.5576 67.5222C95.7461 68.4951 93.8779 69.2449 91.961 69.8648L97.5576 67.5222ZM107.568 49.2567C107.587 48.5742 107.573 47.8811 107.527 47.2259C107.481 46.5707 107.404 45.9694 107.301 45.4638L106.938 43.8912C106.8 43.4065 106.656 42.9632 106.506 42.5642M107.568 49.2567L107.468 49.2521C107.468 49.2525 107.468 49.2528 107.468 49.2532M107.568 49.2567L107.468 49.2539C107.468 49.2536 107.468 49.2534 107.468 49.2532M107.568 49.2567C107.501 50.7109 107.327 52.0167 107.075 52.9548C106.939 53.5074 106.795 54.0094 106.642 54.4561M107.468 49.2532C107.487 48.5741 107.473 47.8845 107.427 47.2329C107.381 46.581 107.305 45.984 107.203 45.4837L107.203 45.482C107.096 44.9 106.975 44.3758 106.842 43.9191L106.842 43.9185C106.705 43.436 106.561 42.9954 106.412 42.5995M107.468 49.2532C107.402 50.7029 107.228 52.0005 106.978 52.9288L106.977 52.931C106.843 53.481 106.699 53.9799 106.547 54.4231M106.412 42.5995C106.412 42.5996 106.412 42.5998 106.412 42.5999L106.506 42.5642M106.412 42.5995C106.107 41.8004 105.791 41.1063 105.465 40.5221M106.412 42.5995L106.506 42.5642M106.506 42.5642L105.465 40.5221M106.547 54.4231C106.547 54.4229 106.547 54.4227 106.547 54.4226L106.642 54.4561M106.547 54.4231C106.388 54.8704 106.225 55.2986 106.054 55.6834M106.547 54.4231C106.547 54.4233 106.547 54.4235 106.547 54.4237L106.642 54.4561M106.642 54.4561C106.482 54.9048 106.318 55.336 106.145 55.7243M106.054 55.6834L106.145 55.7243M106.054 55.6834C105.701 56.4696 105.339 57.153 104.969 57.7303L104.968 57.7315C104.593 58.3357 104.203 58.8521 103.807 59.3364C103.411 59.8197 103.007 60.2539 102.597 60.6533L102.597 60.6535C101.777 61.4581 100.934 62.1239 100.071 62.7167C99.2078 63.3095 98.3278 63.8205 97.4319 64.2734L97.4318 64.2735C95.6398 65.1835 93.7865 65.8776 91.8815 66.4475M106.054 55.6834C106.054 55.6835 106.053 55.6836 106.053 55.6836L106.145 55.7243M106.145 55.7243C105.791 56.5139 105.426 57.2019 105.053 57.7843L91.8815 66.4475M91.8815 66.4475C88.0709 67.5808 84.0595 68.2316 79.8934 68.649C75.7277 69.0662 71.4129 69.2289 66.9906 69.2767C62.5683 69.3245 58.2526 69.2465 54.089 68.8803C49.9247 68.5141 45.9133 67.8935 42.1067 66.6829M91.8815 66.4475L28.3877 52.9857L28.3875 52.9846L28.2897 53.0059L28.3879 52.9867L28.4344 53.2002L28.4345 53.2006L28.5271 53.6336M91.8815 66.4475C91.8816 66.4475 91.8816 66.4475 91.8817 66.4475L91.9101 66.543L91.8815 66.4475ZM42.1067 66.6829C40.2043 66.0723 38.3545 65.3126 36.5699 64.2663L36.5699 64.2662L36.5663 64.2643C34.8467 63.349 33.1386 61.8799 31.4556 59.8632L31.4556 59.8632C30.679 58.9337 29.9248 57.5886 29.2102 55.8507M42.1067 66.6829L42.0764 66.7782L42.107 66.683C42.1069 66.683 42.1068 66.683 42.1067 66.6829ZM29.2102 55.8507C29.046 55.4274 28.8878 54.9542 28.7367 54.4341L28.7367 54.4339C28.6881 54.2682 28.6437 54.0919 28.5988 53.914C28.5752 53.8205 28.5516 53.7266 28.5271 53.6336M29.2102 55.8507C29.2101 55.8504 29.21 55.8501 29.2099 55.8498L29.1174 55.8878L29.2106 55.8517C29.2105 55.8514 29.2104 55.851 29.2102 55.8507ZM28.5271 53.6336L28.5276 53.6358L28.4298 53.6567L28.5265 53.6313C28.5267 53.6321 28.5269 53.6328 28.5271 53.6336ZM35.1046 32.2173C33.7126 33.0592 32.3384 34.3176 30.99 35.9807L28.2004 51.824L28.1016 51.8375L28.2003 51.8238L28.2004 51.8239C28.1962 51.7932 28.192 51.7639 28.1878 51.7349C28.1808 51.6862 28.1739 51.6385 28.1676 51.5866C28.1675 51.5862 28.1675 51.5858 28.1674 51.5854L28.1427 51.3368C28.1427 51.3367 28.1427 51.3366 28.1427 51.3364C28.1364 51.2687 28.1294 51.2032 28.1225 51.1385C28.1116 51.0371 28.101 50.9378 28.0939 50.8358L28.0939 50.835C28.0419 50.1659 28.0188 49.4569 28.0259 48.7473C28.0396 48.0501 28.0827 47.3721 28.1528 46.7504C28.2329 46.0929 28.3333 45.4922 28.4506 44.9667C28.7055 43.847 28.9939 42.9034 29.306 42.1636L29.3063 42.1626C29.6246 41.3867 29.9528 40.7045 30.2887 40.1198C30.6254 39.5395 30.9647 39.022 31.304 38.5572C32.6148 36.8639 33.9455 35.5631 35.2869 34.6598L35.2869 34.6598L35.289 34.6583C36.5673 33.7477 37.7818 33.0964 38.9208 32.5648C41.2001 31.5226 43.172 30.965 44.7866 30.5776C46.1414 30.2525 47.2425 30.0535 48.0667 29.9046C48.225 29.876 48.3731 29.8492 48.5108 29.8238C48.9369 29.745 49.2666 29.6785 49.4904 29.6155C49.6016 29.5842 49.6928 29.5522 49.7581 29.5172C49.7907 29.4997 49.8221 29.4788 49.8466 29.4525C49.8717 29.4255 49.8943 29.3872 49.8943 29.339C49.8944 29.2915 49.8726 29.2532 49.8485 29.2258C49.8247 29.1988 49.7937 29.1764 49.7608 29.1575C49.6947 29.1196 49.6027 29.0852 49.4898 29.0541C49.2626 28.9914 48.9301 28.9362 48.4999 28.8978C47.6387 28.8209 46.3706 28.7925 44.7404 28.9735C43.1113 29.1545 41.1159 29.504 38.8034 30.3674L38.8027 30.3677C37.6482 30.8088 36.4117 31.3743 35.1046 32.2173ZM28.2669 52.3025L28.2666 52.3007L28.1681 52.3181L28.2671 52.3044L28.2669 52.3025ZM28.3475 52.7585C28.3475 52.7585 28.3475 52.7584 28.3475 52.7583L28.3475 52.7585Z" fill="white" stroke="white" stroke-width="0.2"/>
<path d="M26.07 27.7795C26.7182 27.3163 27.1774 26.7138 27.4458 25.9741C29.0183 27.6748 31.0315 28.5249 33.4776 28.5249C34.6061 28.5249 35.5519 28.1477 36.3077 27.3921C37.0643 26.6552 37.4415 25.7185 37.4415 24.59C37.4415 24.0696 37.3569 23.5849 37.1869 23.1367C37.3566 22.6715 37.4415 22.1873 37.4415 21.6848C37.4415 20.685 37.142 19.821 36.5417 19.0979C37.916 17.3904 38.6035 15.4237 38.6035 13.2017C38.6035 12.6986 38.5653 12.2048 38.4886 11.7204C38.5653 11.2552 38.6035 10.7805 38.6035 10.2966C38.6035 7.6371 37.6931 5.40327 35.8722 3.60186C34.0708 1.80047 31.837 0.9 29.1779 0.9C26.5187 0.9 24.2849 1.80053 22.4834 3.60205C21.3718 4.71363 20.6033 5.98979 20.1776 7.42891C19.6165 6.36354 18.8836 5.37832 17.9788 4.4736C15.5964 2.0912 12.6558 0.9 9.16354 0.9H4.83483C3.76182 0.9 2.83596 1.28866 2.06231 2.06231C1.28866 2.83596 0.9 3.76182 0.9 4.83483V24.59C0.9 25.7179 1.26707 26.6545 2.0042 27.3916C2.76016 28.1476 3.70613 28.5249 4.83483 28.5249C5.62283 28.5249 6.3301 28.3379 6.95386 27.9622C7.59819 28.3767 8.33582 28.583 9.16354 28.583C12.6368 28.583 15.5677 27.3818 17.9499 24.9802C18.6676 24.2682 19.2781 23.5073 19.7814 22.6975V24.59C19.7814 25.6999 20.159 26.636 20.9146 27.3916C21.6702 28.1472 22.6063 28.5249 23.7162 28.5249C24.6073 28.5249 25.3933 28.2769 26.07 27.7795ZM26.07 27.7795C26.0698 27.7797 26.0696 27.7798 26.0694 27.7799L26.0113 27.6986L26.0705 27.7791C26.0703 27.7793 26.0702 27.7794 26.07 27.7795ZM6.81035 6.71035H6.71035V6.81035V21.6848C6.71035 22.2422 6.53495 22.6899 6.18861 23.0367C5.84206 23.3645 5.39378 23.5313 4.83483 23.5313C4.27641 23.5313 3.82845 23.3649 3.48204 23.0376C3.15483 22.6912 2.98836 22.2433 2.98836 21.6848V4.83483C2.98836 4.33979 3.17051 3.90971 3.54011 3.54011C3.90971 3.17051 4.33979 2.98836 4.83483 2.98836H9.16354C12.0822 2.98836 14.5258 3.97616 16.501 5.9514C18.4763 7.92665 19.4641 10.3702 19.4641 13.2889C19.4641 16.2076 18.4763 18.6511 16.501 20.6264C14.5258 22.6016 12.0822 23.5894 9.16354 23.5894C8.60512 23.5894 8.15716 23.423 7.81075 23.0958C7.48354 22.7493 7.31708 22.3014 7.31708 21.743C7.31708 21.184 7.48385 20.7357 7.81168 20.3892C8.15852 20.0428 8.60616 19.8674 9.16354 19.8674C11.0285 19.8674 12.5942 19.2381 13.8535 17.9788C15.1128 16.7195 15.7421 15.1539 15.7421 13.2889C15.7421 11.4051 15.1132 9.83921 13.8535 8.59893C12.6132 7.33927 11.0473 6.71035 9.16354 6.71035H6.81035ZM11.8635 12.5554L11.8634 12.5555L11.8657 12.5571C12.6331 13.0998 13.1593 13.8268 13.4456 14.7412C13.1593 15.6366 12.633 16.3644 11.8644 16.9268C11.0886 17.4945 10.1896 17.7791 9.16354 17.7791C9.04191 17.7791 8.9203 17.7849 8.79872 17.7965V11.7039H9.16354C10.2094 11.7039 11.1078 11.9887 11.8635 12.5554ZM34.3946 5.07985L34.3951 5.08033C35.8083 6.4744 36.5152 8.21077 36.5152 10.2966C36.5152 11.96 36.0186 13.4396 35.0251 14.7388C34.0313 16.0384 32.7327 16.9171 31.126 17.3762L31.0511 17.3976L31.0535 17.4755C31.0737 18.1211 31.3169 18.6778 31.78 19.1409L31.7816 19.1425C32.2451 19.5858 32.7926 19.8093 33.4195 19.8093C34.0182 19.8093 34.4847 19.9863 34.8304 20.332L34.8324 20.3339C35.1767 20.6602 35.3531 21.1064 35.3531 21.6848C35.3531 22.2422 35.1777 22.6899 34.8313 23.0367C34.4848 23.3645 34.0365 23.5313 33.4776 23.5313C31.7206 23.5313 30.2552 22.95 29.0743 21.7884C27.913 20.6078 27.3315 19.1328 27.3315 17.3561V15.7583C27.3315 15.2633 27.5136 14.8332 27.8832 14.4636C28.2528 14.094 28.6829 13.9118 29.1779 13.9118C30.1725 13.9118 31.0212 13.5626 31.718 12.8657C32.4337 12.1501 32.7932 11.292 32.7932 10.2966C32.7932 9.30126 32.4337 8.45247 31.7175 7.75595C31.0208 7.05944 30.1723 6.71035 29.1779 6.71035C28.1833 6.71035 27.3347 7.05961 26.6378 7.75645C25.941 8.45329 25.5917 9.30195 25.5917 10.2966V21.6848C25.5917 22.2422 25.4163 22.6899 25.07 23.0367C24.7234 23.3645 24.2751 23.5313 23.7162 23.5313C23.1787 23.5313 22.7401 23.3563 22.3924 23.0086C22.0448 22.661 21.8697 22.2223 21.8697 21.6848V10.2966C21.8697 8.21034 22.5673 6.47382 23.9612 5.07985C25.3552 3.68589 27.0917 2.98836 29.1779 2.98836C31.2641 2.98836 33.0007 3.68589 34.3946 5.07985ZM29.1779 11.7039C29.2996 11.7039 29.4188 11.7158 29.5357 11.7397C29.0393 11.8618 28.6192 11.9463 28.2746 11.9938C28.5264 11.8005 28.8262 11.7039 29.1779 11.7039Z" fill="white" stroke="white" stroke-width="0.2"/>
<path d="M85.6236 21.0315L85.6238 21.0321C86.1542 22.945 85.9018 24.8027 84.8624 26.611C83.823 28.4194 82.3398 29.5811 80.4098 30.1023C78.5066 30.6162 76.6534 30.3555 74.8447 29.3159C74.3615 29.0381 74.0608 28.663 73.9327 28.1899C73.8211 27.7261 73.8999 27.2543 74.1785 26.7697C74.4574 26.2845 74.8203 25.9884 75.2661 25.868C75.7399 25.7401 76.2158 25.811 76.6995 26.089C77.5618 26.5846 78.4716 26.7047 79.423 26.4479C80.4001 26.184 81.1394 25.6193 81.6355 24.7562C82.1315 23.8933 82.2428 22.9783 81.969 22.0175C81.712 21.0664 81.1503 20.3409 80.2882 19.8454C79.4259 19.3498 78.5161 19.2297 77.5647 19.4866C76.6133 19.7434 75.8876 20.3052 75.3919 21.1675L69.7168 31.041C69.439 31.5242 69.0639 31.8249 68.5907 31.953C68.1269 32.0645 67.6552 31.9857 67.1706 31.7072C66.7046 31.4394 66.4115 31.069 66.2833 30.5943C66.1552 30.1197 66.222 29.6522 66.4898 29.1862L72.165 19.3127C73.2046 17.504 74.6747 16.346 76.578 15.8321C78.4812 15.3183 80.3343 15.5789 82.143 16.6185C83.9517 17.6581 85.1097 19.1282 85.6236 21.0315ZM79.5213 34.6135C82.0069 33.9424 83.9094 32.4596 85.2252 30.1704C85.4664 29.7509 85.6698 29.3203 85.8352 28.8787C86.143 28.4969 86.4223 28.0879 86.673 27.6517C87.9983 25.346 88.3222 22.9556 87.6412 20.4864C86.977 18.0269 85.4891 16.133 83.1837 14.8079C80.8782 13.4828 78.4928 13.1503 76.0332 13.8145C73.5735 14.4786 71.6796 15.9665 70.3544 18.272L63.2315 30.6642C62.6784 31.6265 62.5394 32.6263 62.8179 33.6579C63.0965 34.6895 63.7199 35.4834 64.6821 36.0365C65.6605 36.5989 66.6684 36.7432 67.7003 36.4648C68.7234 36.2029 69.5172 35.5788 70.0796 34.6004L71.193 32.6633C71.5145 33.0571 71.9025 33.3844 72.3563 33.6452C74.6455 34.961 77.0357 35.2846 79.5213 34.6135ZM77.7998 24.1747C77.905 24.2352 78.0021 24.3047 78.0913 24.3833C77.6087 24.2429 77.2151 24.1064 76.9093 23.9742C77.2137 23.9415 77.5095 24.0079 77.7998 24.1747Z" fill="white" stroke="white" stroke-width="0.2"/>
<path d="M79.0727 47.5832C79.1315 47.3872 79.19 47.1626 79.2484 46.9096L79.251 46.8985V46.8871V42.9651C79.251 42.4281 79.4257 41.9897 79.7728 41.6422C80.1403 41.2935 80.5895 41.1186 81.1265 41.1186C81.6844 41.1186 82.1214 41.2943 82.4484 41.6394L82.4483 41.6395L82.4522 41.6432C82.7973 41.9701 82.9729 42.4071 82.9729 42.9651V55.4864C82.9729 57.2432 82.3821 58.7086 81.201 59.8897L81.2004 59.8903C80.039 61.0708 78.5836 61.6616 76.8268 61.6616C75.0501 61.6616 73.5751 61.08 72.3945 59.9187C71.2332 58.7381 70.6516 57.2631 70.6516 55.4864V55.1959C70.6516 54.6363 70.8187 54.1987 71.1453 53.8721C71.4922 53.5252 71.9402 53.3494 72.4981 53.3494C73.056 53.3494 73.504 53.5252 73.8509 53.8721L73.8509 53.8722L73.8529 53.874C74.1979 54.2009 74.3736 54.6379 74.3736 55.1959V55.4864C74.3736 56.1701 74.6059 56.7567 75.0696 57.2406L75.0695 57.2407L75.0726 57.2436C75.5565 57.7074 76.1432 57.9396 76.8268 57.9396C77.5105 57.9396 78.0883 57.7073 78.5535 57.2421L78.555 57.2406C79.0187 56.7567 79.251 56.1701 79.251 55.4864V52.6974V52.5468L79.1121 52.6053C78.3887 52.9099 77.6272 53.0623 76.8268 53.0623C75.0501 53.0623 73.5751 52.4807 72.3945 51.3194C71.2332 50.1388 70.6516 48.6638 70.6516 46.8871V42.9651C70.6516 42.4055 70.8187 41.9679 71.1453 41.6413C71.4922 41.2944 71.9402 41.1186 72.4981 41.1186C73.056 41.1186 73.504 41.2944 73.8509 41.6413L73.8509 41.6414L73.8529 41.6432C74.1979 41.9701 74.3736 42.4071 74.3736 42.9651V46.8871C74.3736 47.5707 74.6059 48.1574 75.0696 48.6413L75.0695 48.6414L75.0726 48.6443C75.5565 49.108 76.1432 49.3403 76.8268 49.3403C77.5106 49.3403 78.0881 49.0981 78.5524 48.6149C78.7667 48.4203 78.9366 48.0688 79.0727 47.5832ZM79.0727 47.5832C79.0728 47.5829 79.0729 47.5826 79.0729 47.5823L78.9766 47.5553L79.0724 47.584C79.0725 47.5837 79.0726 47.5835 79.0727 47.5832ZM59.3396 62.7203V60.486C59.8146 60.6672 60.3141 60.7576 60.8375 60.7576C63.4778 60.7576 65.7115 59.847 67.532 58.0265C67.9538 57.6047 68.3268 57.1607 68.6509 56.6946C68.667 56.8042 68.6854 56.9134 68.7059 57.0221C68.6108 57.3724 68.5633 57.7322 68.5633 58.1011V58.3916C68.5633 60.7217 69.3574 62.6843 70.9457 64.2727C72.5341 65.861 74.4967 66.6551 76.8268 66.6551C79.1381 66.6551 81.091 65.8509 82.679 64.2434C84.2671 62.6553 85.0613 60.7025 85.0613 58.3916V42.9651C85.0613 41.8369 84.6843 40.9003 83.928 40.1635C83.1912 39.4073 82.2547 39.0303 81.1265 39.0303C80.0166 39.0303 79.0714 39.4079 78.2968 40.1626L78.2958 40.1635C77.5403 40.9191 77.1626 41.8552 77.1626 42.9651V46.8871C77.1626 47.0282 77.1294 47.1154 77.0807 47.1673C77.0331 47.2181 76.9549 47.2519 76.8268 47.2519C76.6873 47.2519 76.601 47.2171 76.5489 47.165C76.4968 47.1129 76.462 47.0266 76.462 46.8871V42.9651C76.462 41.8366 76.0848 40.8999 75.3282 40.163C74.5723 39.4074 73.6265 39.0303 72.4981 39.0303C71.3694 39.0303 70.4234 39.4076 69.6675 40.1635C68.9378 40.8932 68.5707 41.8183 68.5634 42.9309C68.2601 42.5121 67.9162 42.1125 67.5318 41.7321C65.7303 39.9307 63.4966 39.0303 60.8375 39.0303C58.1782 39.0303 55.9445 39.9308 54.1429 41.7323C52.3414 43.5339 51.4409 45.7676 51.4409 48.4268V62.7203C51.4409 63.8302 51.8186 64.7663 52.5741 65.5219C53.3297 66.2775 54.2658 66.6551 55.3757 66.6551C56.5042 66.6551 57.45 66.278 58.2059 65.5224C58.9624 64.7855 59.3396 63.8488 59.3396 62.7203ZM66.0542 43.2101L66.0546 43.2106C67.4678 44.6047 68.1747 46.3411 68.1747 48.4268C68.1747 50.5126 67.4678 52.259 66.0542 53.6726C64.6602 55.0666 62.9237 55.7641 60.8375 55.7641C60.2801 55.7641 59.8324 55.5887 59.4856 55.2424C59.1578 54.8958 58.991 54.4475 58.991 53.8886C58.991 53.329 59.1581 52.8913 59.4846 52.5648C59.8316 52.2178 60.2796 52.0421 60.8375 52.0421C61.8321 52.0421 62.6807 51.6928 63.3776 50.996C64.0932 50.2804 64.4527 49.4223 64.4527 48.4268C64.4527 47.4315 64.0932 46.5828 63.3771 45.8862C62.6803 45.1897 61.8318 44.8406 60.8375 44.8406C59.8428 44.8406 58.9942 45.1899 58.2973 45.8867C57.6005 46.5836 57.2512 47.4322 57.2512 48.4268V59.8151C57.2512 60.3725 57.0758 60.8202 56.7295 61.167C56.383 61.4948 55.9347 61.6616 55.3757 61.6616C54.8383 61.6616 54.3996 61.4866 54.052 61.1389C53.7043 60.7912 53.5293 60.3526 53.5293 59.8151V48.4268C53.5293 46.3406 54.2268 44.6041 55.6207 43.2101C57.0147 41.8162 58.7512 41.1186 60.8375 41.1186C62.9237 41.1186 64.6602 41.8162 66.0542 43.2101ZM60.8375 49.8342C60.9588 49.8342 61.0777 49.846 61.1941 49.8697C60.7057 49.9885 60.2965 50.0663 59.9655 50.1041C60.213 49.924 60.5026 49.8342 60.8375 49.8342Z" fill="white" stroke="white" stroke-width="0.2"/>
</svg>
